<svg height="265" width="526" xmlns="http://www.w3.org/2000/svg"><g fill="none" fill-rule="evenodd"><g fill="#000"><path d="M311.337 157.84h.44l.44.001.44.001.44.002.44.002.441.002.44.002.442.003.441.003.442.003.441.004.442.004.442.004.442.005.443.005.442.005.443.006.443.005.443.007.443.006.444.007.443.007.444.008.444.008.444.008.445.008.444.01.445.009.445.01.445.009.194.004.251.006.446.011.445.011.446.012.446.011.446.012.447.013.446.012.447.013.447.014.446.013.448.014.447.015.448.014.447.015.448.016.448.015.449.016.448.016.449.017.449.017.449.017.449.017.449.018.45.018.449.019.45.019.45.019.45.02.45.019.45.02.452.02.45.02.451.022.452.021.451.022.452.022.451.022.452.023.452.023.452.023.453.023.452.024.453.025.453.024.453.025.453.025.453.025.454.026.454.026.453.027.454.026.455.027.454.028.069.004.386.024.454.028.455.029.455.029.455.03.455.03.456.03.455.03.456.03.456.03.456.032.457.032.456.032.457.032.457.032.456.033.457.033.458.034.457.034.458.034.457.034.458.035.458.035.458.035.459.036.458.036.459.036.459.037.284.022.284.024.285.023.284.024.285.024.286.024.286.025.286.025.286.025.286.026.287.026.287.026.288.027.287.027.288.027.288.028.289.027.288.029.29.028.288.029.29.03.29.029.29.03.29.03.29.03.29.03.291.031.291.032.292.032.291.031.292.033.292.032.292.033.293.034.292.033.293.034.293.034.294.035.293.035.294.035.294.035.025.003.269.033.294.037.295.036.295.038.295.037.295.038.295.038.296.038.295.039.296.039.296.039.297.04.296.04.296.04.297.04.297.041.297.042.298.041.297.042.298.043.298.042.298.043.298.043.298.044.298.044.299.044.299.045.299.044.299.046.299.045.3.046.299.046.3.047.3.047.299.047.3.047.3.048.3.049.3.048.301.049.3.05.301.049.301.05.301.05.301.05.302.051.301.052.302.051.301.052.302.052.301.053.302.053.302.053.302.053.302.054.302.055.303.054.302.055.302.055.303.056.303.056.302.056.303.057.303.057.303.057.303.058.303.058.303.058.303.059.303.059.304.06.303.059.303.06.304.06.303.06.304.062.304.061.303.062.304.062.304.063.303.062.304.064.304.063.304.064.304.064.304.065.304.064.303.066.304.065.02.005.284.061.304.067.304.067.304.067.304.067.304.068.304.069.304.068.304.07.304.068.304.07.304.07.304.07.304.071.304.071.304.072.304.071.304.073.304.072.304.073.304.073.303.074.304.073.304.075.304.074.303.075.304.075.304.076.303.076.304.076.303.077.304.077.303.078.303.077.304.079.303.078.303.079.303.08.303.079.303.08.303.08.303.08.303.082.302.081.303.082.303.082.302.082.302.083.303.083.302.084.302.084.302.084.302.085.302.085.302.085.301.086.302.086.301.086.302.087.3.087.302.088.301.088.3.088.302.089.3.089.3.09.301.089.3.09.3.09.3.091.3.092.3.091.3.092.3.093.3.092.298.093.3.094.298.094.3.094.298.094.298.095.299.096.298.095.298.096.298.097.297.096.298.098.297.097.298.098.296.098.297.099.297.099.297.1.296.099.296.1.296.1.296.102.295.1.296.102.295.103.295.102.295.103.294.103.295.103.294.104.294.105.294.104.294.105.293.106.293.105.293.107.293.106.292.107.293.108.292.107.292.108.291.109.292.109.29.109.292.11.29.11.291.11.29.11.29.112.29.111.29.112.289.113.289.112.288.113.289.114.288.114.288.114.288.114.287.115.287.116.287.116.287.116.286.116.286.117.286.118.286.117.285.118.285.119.284.119.285.119.284.12.284.12.283.12.284.121.283.121.282.122.282.122.282.122.282.123.281.123.282.124.28.124.281.124.28.125.28.125.28.126.278.126.28.126.278.127.278.127.278.127.278.128.277.129.277.128.276.13.276.129.276.13.276.13.275.13.112.054.163.078.274.132.274.132.273.132.274.133.273.133.272.134.273.134.271.135.272.134.27.136.271.135.27.137.27.136.27.137.27.137.268.138.269.138.268.138.267.14.267.139.267.14.267.14.266.14.265.14.266.142.264.142.265.142.264.143.263.143.263.143.263.144.263.144.261.144.262.145.261.146.26.146.26.146.26.147.26.147.259.147.258.148.258.148.258.149.257.149.257.15.256.15.256.15.255.15.255.151.254.152.127.076.127.076.127.076.127.076.126.077.127.076.126.077.126.076.126.077.127.077.125.077.126.077.126.077.125.077.126.078.125.077.125.078.125.078.125.077.125.078.125.078.124.078.125.079.124.078.124.078.124.079.124.078.124.08.124.078.123.079.124.079.123.079.123.08.123.079.123.08.123.079.123.08.122.08.123.079.122.08.123.08.122.08.122.08.121.081.122.08.122.081.121.08.122.082.12.08.122.082.12.08.121.082.121.081.12.082.121.081.12.082.12.082.12.082.12.082.12.082.12.082.12.082.119.082.12.083.118.083.12.082.118.083.119.083.119.083.118.083.118.083.119.084.118.083.118.084.117.083.118.084.117.084.118.084.117.084.117.084.117.085.117.084.117.084.116.085.117.085.116.085.116.085.116.085.116.085.116.085.115.085.116.086.115.085.115.086.115.086.115.086.115.086.115.086.114.086.114.086.115.087.114.086.114.087.114.087.113.086.114.087.113.087.113.088.113.087.113.087.113.088.112.087.113.088.112.088.112.088.113.088.111.088.112.088.112.088.111.089.111.089.112.088.11.089.111.089.111.089.11.089.111.089.11.09.11.089.11.09.11.089.11.09.11.09.11.09.108.09.11.09.108.09.109.09.109.09.108.092.108.09.109.091.108.091.107.091.108.091.108.091.107.092.107.091.107.092.107.092.107.091.107.092.106.092.107.092.106.093.106.092.105.092.106.093.106.093.105.092.105.093.105.093.105.093.105.093.105.094.104.093.104.094.104.093.104.094.104.094.104.094.103.094.103.094.104.095.102.094.103.095.103.094.102.095.103.095.102.095.102.095.102.095.102.095.101.096.101.095.102.096.1.095.101.096.101.096.1.096.101.096.1.097.1.096.1.096.1.097.1.097.099.097.099.096.099.097.099.098.099.097.098.097.098.098.098.097.098.098.098.098.098.098.098.098.097.098.097.098.097.098.097.099.097.098.096.1.096.098.096.099.096.099.096.099.096.1.095.099.096.1.095.099.095.1.094.099.095.1.094.1.094.1.094.1.094.1.094.101.094.1.093.101.093.101.093.101.093.101.092.101.093.101.092.102.092.101.092.102.092.101.092.102.09.102.092.102.091.102.091.103.09.102.091.102.09.103.09.103.09.102.09.103.09.103.09.103.088.104.09.103.088.104.089.103.088.104.089.104.088.104.088.104.087.104.088.104.087.104.088.105.086.104.087.105.087.105.086.105.087.105.086.105.086.105.085.105.086.106.085.106.085.105.085.106.085.106.084.106.085.106.084.107.084.106.084.106.083.107.084.107.083.107.083.107.083.107.082.107.083.107.082.107.082.108.082.108.082.107.081.108.082.108.08.108.082.108.08.109.08.108.081.109.08.108.08.109.08.109.08.109.079.109.079.11.079.109.079.109.078.11.079.11.078.109.078.11-.049.244-.256-.047-.08-.108-.078-.109-.08-.108-.079-.109-.08-.108-.08-.108-.08-.108-.08-.108-.08-.107-.08-.108-.08-.107-.082-.108-.081-.107-.081-.107-.082-.107-.082-.107-.081-.107-.082-.107-.083-.106-.082-.107-.083-.106-.083-.106-.083-.106-.083-.106-.083-.106-.084-.106-.084-.106-.084-.105-.084-.105-.084-.106-.085-.105-.084-.105-.085-.105-.085-.105-.086-.104-.085-.105-.086-.104-.086-.105-.086-.104-.086-.104-.086-.104-.087-.104-.087-.104-.086-.104-.088-.103-.087-.104-.087-.103-.088-.103-.088-.103-.088-.103-.088-.103-.089-.103-.088-.103-.089-.102-.09-.103-.088-.102-.09-.102-.089-.102-.09-.102-.09-.102-.09-.102-.09-.102-.09-.101-.09-.101-.092-.102-.09-.1-.092-.102-.09-.101-.092-.1-.092-.102-.092-.1-.092-.1-.092-.101-.092-.1-.093-.1-.093-.1-.093-.1-.093-.1-.093-.1-.093-.1-.094-.099-.094-.1-.094-.099-.094-.099-.094-.099-.094-.099-.095-.099-.095-.098-.095-.099-.095-.098-.095-.099-.096-.098-.095-.098-.096-.098-.096-.098-.096-.098-.097-.097-.096-.098-.097-.097-.097-.098-.097-.097-.097-.097-.097-.097-.098-.097-.097-.097-.099-.096-.098-.097-.098-.096-.098-.097-.098-.096-.1-.096-.098-.096-.1-.096-.098-.096-.1-.096-.1-.095-.099-.096-.1-.095-.1-.095-.1-.095-.1-.095-.1-.095-.102-.095-.1-.094-.102-.095-.1-.095-.102-.094-.101-.094-.102-.094-.102-.094-.102-.094-.102-.094-.102-.094-.103-.093-.102-.094-.103-.093-.103-.093-.103-.093-.103-.093-.104-.093-.104-.093-.103-.093-.104-.092-.104-.093-.105-.092-.104-.092-.104-.092-.105-.092-.105-.092-.105-.092-.105-.092-.105-.091-.106-.092-.106-.09-.105-.092-.106-.091-.106-.091-.106-.091-.107-.091-.106-.09-.107-.091-.107-.09-.107-.091-.107-.09-.108-.09-.107-.09-.108-.09-.107-.09-.108-.09-.108-.09-.109-.09-.108-.088-.109-.09-.108-.089-.109-.089-.11-.089-.108-.089-.11-.088-.109-.089-.11-.089-.11-.088-.109-.088-.11-.088-.11-.088-.11-.088-.111-.088-.11-.088-.111-.088-.111-.087-.111-.088-.111-.087-.112-.087-.111-.087-.112-.087-.112-.087-.112-.087-.112-.087-.112-.086-.112-.087-.113-.086-.112-.086-.113-.086-.113-.086-.113-.086-.113-.086-.114-.086-.113-.085-.114-.086-.114-.085-.114-.085-.114-.085-.114-.086-.114-.084-.115-.085-.114-.085-.115-.085-.115-.084-.115-.084-.115-.085-.115-.084-.116-.084-.115-.084-.116-.084-.116-.084-.116-.083-.116-.084-.116-.083-.117-.084-.116-.083-.117-.083-.117-.083-.117-.083-.117-.083-.117-.082-.117-.083-.118-.082-.117-.083-.118-.082-.118-.082-.118-.082-.118-.082-.119-.082-.118-.082-.118-.081-.12-.082-.118-.081-.119-.081-.119-.082-.119-.08-.12-.082-.119-.08-.12-.081-.12-.081-.119-.08-.12-.081-.12-.08-.12-.08-.12-.08-.121-.08-.12-.08-.122-.08-.12-.08-.121-.08-.122-.08-.12-.079-.122-.079-.122-.08-.121-.078-.122-.08-.122-.078-.122-.079-.122-.079-.122-.078-.123-.079-.122-.078-.123-.078-.123-.078-.123-.078-.122-.078-.124-.078-.123-.078-.123-.077-.124-.078-.123-.077-.124-.077-.124-.078-.124-.077-.124-.077-.124-.077-.124-.076-.125-.077-.125-.077-.124-.076-.125-.076-.125-.077-.125-.076-.125-.076-.125-.076-.126-.076-.125-.075-.126-.076-.126-.076-.125-.075-.127-.075-.126-.075-.126-.076-.126-.074-.127-.075-.126-.075-.127-.075-.127-.075-.126-.074-.127-.074-.128-.075-.254-.148-.255-.148-.256-.147-.256-.147-.256-.147-.257-.146-.257-.146-.258-.145-.258-.145-.258-.144-.26-.144-.259-.144-.26-.143-.26-.143-.26-.143-.262-.142-.262-.141-.262-.142-.262-.14-.263-.14-.263-.14-.264-.14-.264-.14-.264-.138-.265-.139-.265-.138-.266-.137-.266-.137-.266-.137-.267-.137-.267-.136-.268-.135-.268-.135-.268-.135-.269-.134-.269-.134-.27-.134-.27-.133-.27-.133-.27-.132-.271-.132-.271-.131-.272-.131-.272-.131-.273-.13-.272-.13-.273-.13-.274-.129-.274-.129-.274-.128-.163-.075-.112-.053-.274-.127-.276-.128-.275-.127-.276-.126-.276-.126-.276-.126-.278-.125-.277-.125-.277-.125-.278-.124-.278-.124-.279-.123-.278-.123-.28-.122-.279-.123-.28-.121-.28-.122-.28-.12-.28-.121-.282-.12-.28-.12-.283-.12-.282-.119-.282-.118-.282-.118-.283-.118-.283-.118-.283-.117-.284-.116-.284-.117-.284-.116-.285-.115-.284-.115-.285-.115-.286-.114-.285-.114-.286-.114-.286-.113-.287-.113-.286-.112-.287-.112-.287-.112-.288-.11-.288-.112-.288-.11-.288-.11-.288-.11-.289-.11-.289-.108-.29-.109-.288-.108-.29-.108-.29-.107-.29-.107-.29-.106-.291-.107-.291-.106-.291-.105-.291-.105-.292-.105-.292-.104-.292-.104-.292-.104-.292-.103-.293-.103-.292-.102-.293-.102-.294-.102-.293-.101-.294-.101-.294-.1-.293-.1-.295-.1-.294-.1-.295-.1-.294-.098-.295-.098-.295-.098-.296-.098-.295-.097-.296-.096-.296-.097-.296-.096-.296-.096-.296-.095-.297-.095-.297-.094-.296-.095-.297-.094-.298-.093-.297-.093-.297-.093-.298-.092-.298-.092-.298-.091-.298-.092-.298-.09-.298-.091-.299-.09-.299-.09-.298-.09-.3-.088-.298-.089-.3-.088-.299-.088-.3-.088-.299-.087-.3-.086-.3-.087-.299-.086-.3-.086-.3-.085-.3-.085-.3-.085-.301-.084-.3-.084-.301-.083-.301-.083-.3-.083-.302-.083-.301-.082-.301-.081-.301-.082-.302-.08-.3-.081-.302-.08-.302-.08-.302-.08-.301-.079-.302-.079-.302-.078-.302-.079-.302-.077-.302-.078-.302-.077-.302-.076-.302-.076-.303-.076-.302-.076-.302-.075-.303-.075-.302-.075-.303-.074-.303-.074-.302-.073-.303-.073-.303-.073-.302-.072-.303-.072-.303-.072-.303-.071-.302-.071-.303-.07-.303-.071-.303-.07-.303-.07-.303-.069-.303-.069-.303-.068-.303-.068-.303-.068-.303-.068-.303-.067-.303-.067-.303-.066-.303-.066-.303-.066-.303-.065-.303-.065-.303-.065-.303-.064-.303-.064-.303-.064-.283-.059-.02-.004-.303-.063-.303-.063-.302-.063-.303-.062-.303-.062-.303-.06-.302-.062-.303-.06-.303-.061-.302-.06-.302-.06-.303-.06-.302-.058-.303-.06-.302-.058-.302-.058-.303-.057-.302-.057-.302-.057-.302-.057-.302-.057-.302-.055-.302-.056-.301-.055-.302-.055-.302-.055-.301-.054-.302-.054-.301-.054-.301-.053-.302-.053-.3-.053-.302-.052-.3-.052-.302-.051-.3-.051-.301-.051-.3-.051-.301-.05-.3-.05-.3-.05-.301-.049-.3-.049-.3-.048-.3-.049-.3-.048-.3-.047-.299-.047-.299-.047-.3-.047-.298-.046-.3-.046-.298-.046-.299-.045-.298-.045-.299-.044-.298-.045-.298-.044-.298-.043-.298-.044-.298-.043-.297-.042-.298-.042-.297-.042-.297-.042-.297-.041-.296-.041-.297-.041-.297-.04-.296-.04-.296-.04-.296-.04-.296-.038-.295-.04-.296-.038-.295-.038-.295-.037-.295-.038-.294-.037-.295-.037-.294-.036-.294-.036-.294-.036-.294-.036-.293-.035-.294-.035-.293-.034-.293-.034-.267-.031-.025-.003-.293-.034-.292-.034-.292-.033-.292-.033-.291-.032-.292-.032-.29-.032-.292-.032-.29-.031-.29-.031-.291-.03-.29-.031-.29-.03-.29-.03-.289-.03-.289-.028-.288-.03-.289-.028-.288-.028-.288-.028-.288-.027-.288-.027-.287-.027-.287-.027-.287-.026-.286-.026-.286-.026-.286-.025-.286-.025-.286-.025-.285-.024-.285-.024-.284-.024-.284-.023-.285-.023-.283-.023-.284-.023-.283-.022-.283-.022-.283-.022-.282-.02-.458-.035-.457-.034-.458-.033-.457-.034-.458-.033-.457-.032-.456-.032-.457-.033-.457-.031-.456-.032-.456-.03-.456-.031-.456-.03-.456-.031-.455-.03-.456-.03-.455-.029-.455-.029-.455-.028-.455-.028-.454-.028-.455-.028-.454-.027-.454-.027-.454-.027-.454-.026-.453-.027-.385-.021-.069-.004-.453-.026-.453-.026-.453-.025-.452-.025-.453-.025-.452-.024-.453-.024-.451-.024-.452-.024-.452-.023-.452-.023-.45-.022-.452-.022-.451-.022-.45-.022-.451-.02-.451-.022-.45-.02-.45-.02-.45-.02-.45-.02-.45-.02-.45-.019-.448-.018-.45-.019-.448-.018-.449-.018-.449-.017-.448-.017-.448-.017-.448-.016-.448-.016-.448-.016-.447-.016-.448-.015-.447-.015-.447-.014-.446-.015-.447-.014-.447-.013-.446-.014-.446-.013-.446-.012-.445-.013-.446-.012-.445-.011-.445-.012-.445-.01-.445-.011-.445-.01-.444-.01-.445-.01-.444-.01-.25-.005-.193-.004-.444-.01-.444-.008-.443-.009-.443-.008-.443-.008-.443-.007-.442-.007-.443-.007-.442-.007-.442-.006-.442-.006-.442-.005-.441-.006-.442-.005-.44-.004-.442-.004-.44-.004-.44-.004-.441-.003-.44-.003-.44-.003-.44-.002-.44-.002-.44-.002-.439-.001-.439-.001h-.439l-.438-.001h-1.315l-.438.002h-.438l-.437.002-.438.002-.437.003-.437.002-.436.003-.437.003-.436.004-.436.004-.436.004-.436.005-.436.004-.435.006-.435.005-.435.006-.435.006-.435.007-.434.007-.435.007-.434.007-.433.008-.434.008-.433.009-.434.009-.433.009-.433.01-.432.009-.073.002-.36.008-.432.01-.432.01-.432.012-.431.01-.432.012-.431.012-.431.012-.431.013-.43.013-.431.013-.43.013-.43.014-.43.014-.43.015-.43.015-.429.015-.429.015-.429.016-.428.016-.429.017-.428.017-.428.017-.428.018-.427.017-.428.018-.427.019-.427.019-.427.02-.427.019-.426.02-.426.02-.426.02-.426.021-.425.021-.426.022-.425.022-.425.022-.424.022-.425.023-.424.024-.424.023-.424.024-.424.024-.423.025-.424.025-.423.025-.423.026-.422.025-.423.027-.422.026-.422.027-.422.028-.421.027-.421.028-.422.029-.42.028-.421.03-.42.029-.421.03-.42.03-.42.03-.42.03-.419.031-.42.032-.418.031-.419.032-.419.033-.418.032-.418.033-.418.034-.418.034-.417.034-.417.034-.417.035-.417.035-.417.036-.416.035-.416.036-.416.037-.416.037-.415.037-.416.038-.415.037-.415.039-.414.038-.414.04-.415.038-.414.04-.413.04-.414.04-.413.04-.413.042-.413.041-.413.042-.412.042-.412.042-.412.043-.412.043-.411.043-.412.044-.41.044-.411.044-.411.045-.41.045-.41.046-.41.045-.41.047-.41.046-.409.047-.409.047-.408.048-.409.048-.408.048-.408.048-.408.05-.408.049-.407.05-.407.05-.407.05-.407.05-.406.051-.407.052-.406.052-.405.052-.406.052-.405.053-.405.053-.405.054-.405.053-.065.01-.339.044-.404.055-.404.054-.404.055-.403.056-.404.056-.403.056-.402.056-.403.057-.402.057-.402.057-.402.058-.401.059-.402.058-.4.059-.402.06-.4.059-.4.06-.4.06-.4.06-.4.062-.4.061-.4.062-.398.062-.399.063-.398.062-.399.064-.398.063-.397.064-.398.064-.397.065-.397.065-.397.065-.396.066-.397.066-.396.066-.396.067-.395.067-.396.067-.395.068-.394.068-.395.069-.394.068-.395.07-.393.07-.394.07-.393.07-.393.07-.393.071-.393.072-.392.071-.393.072-.391.073-.392.073-.391.073-.392.073-.39.074-.391.074-.39.075-.39.075-.39.075-.39.076-.39.076-.389.076-.389.077-.388.077-.389.078-.388.078-.388.078-.387.079-.388.079-.387.079-.387.08-.386.08-.387.08-.386.08-.386.082-.385.081-.386.082-.385.082-.385.083-.384.083-.385.083-.384.084-.384.084-.383.084-.383.085-.384.085-.382.085-.383.086-.382.086-.382.087-.382.087-.382.087-.38.088-.382.088-.38.088-.38.09-.381.088-.38.09-.38.09-.38.09-.378.09-.38.092-.378.09-.378.092-.378.093-.378.092-.378.093-.377.093-.377.093-.377.094-.377.095-.376.094-.376.095-.376.096-.375.095-.375.097-.375.096-.375.097-.375.097-.374.098-.373.098-.374.098-.374.099-.373.099-.372.1-.373.1-.372.1-.372.1-.248.067-.124.034-.372.1-.37.102-.372.103-.37.102-.371.102-.37.104-.37.103-.37.104-.37.104-.368.104-.369.105-.368.106-.369.105-.368.107-.368.106-.367.107-.367.107-.367.107-.367.108-.366.109-.366.108-.366.11-.366.109-.365.11-.365.11-.365.11-.364.111-.364.111-.364.112-.364.112-.363.113-.363.112-.363.113-.362.114-.363.114-.361.114-.362.115-.362.115-.36.115-.361.116-.361.116-.36.117-.36.117-.36.117-.36.118-.359.118-.359.118-.358.12-.358.119-.358.119-.358.12-.358.12-.357.121-.357.121-.356.122-.357.121-.356.123-.356.122-.355.123-.355.124-.355.123-.355.125-.354.124-.354.125-.354.126-.353.125-.353.126-.353.127-.353.126-.352.128-.352.127-.352.128-.352.129-.35.128-.352.13-.35.129-.35.13-.35.13-.35.13-.35.132-.35.131-.348.132-.349.132-.348.133-.348.133-.348.133-.347.134-.347.134-.347.134-.346.135-.347.135-.346.136-.345.136-.346.136-.345.137-.345.137-.344.138-.344.138-.344.138-.344.14-.343.138-.343.14-.343.14-.342.14-.342.14-.049.02-.293.122-.342.141-.341.142-.34.142-.342.143h-.002l-.692.014-.502-.454-.002-.003-.014-.658.477-.477.002-.001.342-.144.343-.144.343-.143.344-.143.295-.122.048-.02.345-.142.344-.142.345-.141.345-.14.345-.141.346-.14.345-.14.347-.14.346-.138.347-.139.347-.138.347-.138.348-.137.348-.137.348-.137.349-.136.349-.136.349-.135.35-.135.349-.135.35-.134.35-.134.35-.133.351-.133.352-.133.351-.132.352-.132.352-.132.352-.131.353-.13.353-.131.353-.13.353-.13.354-.13.354-.128.354-.128.355-.128.355-.128.355-.127.356-.127.355-.127.356-.126.357-.126.356-.125.357-.125.357-.125.358-.124.358-.124.358-.123.358-.123.359-.123.359-.122.359-.122.36-.122.359-.121.36-.12.36-.121.36-.12.361-.12.362-.12.361-.118.362-.119.362-.118.362-.118.362-.117.363-.117.363-.116.364-.117.363-.115.364-.116.364-.115.365-.115.365-.114.365-.114.365-.113.366-.114.366-.112.366-.113.366-.112.367-.112.367-.11.367-.112.367-.11.368-.11.368-.11.369-.11.368-.109.369-.108.37-.109.369-.108.37-.107.37-.107.37-.107.37-.106.37-.106.372-.106.371-.105.372-.105.372-.105.372-.104.372-.104.373-.103.373-.103.373-.103.373-.102.125-.034.249-.068.374-.101.374-.101.375-.1.375-.101.375-.1.375-.1.376-.099.376-.099.376-.098.376-.098.377-.098.377-.097.377-.097.378-.097.377-.096.378-.096.379-.095.378-.095.38-.095.378-.094.38-.094.379-.094.38-.093.38-.093.38-.093.38-.092.382-.091.38-.092.382-.09.382-.091.382-.09.382-.09.382-.09.383-.09.383-.088.383-.089.384-.088.384-.087.384-.088.384-.087.384-.086.385-.086.385-.086.385-.086.386-.085.385-.085.386-.084.387-.084.386-.084.387-.083.387-.083.387-.083.388-.082.388-.082.388-.081.388-.081.389-.08.389-.081.389-.08.389-.08.39-.08.39-.078.39-.079.39-.078.39-.078.391-.077.39-.077.392-.077.392-.076.392-.076.392-.076.392-.075.393-.075.392-.075.393-.074.394-.074.393-.073.394-.073.394-.073.394-.073.395-.072.395-.071.395-.072.395-.07.395-.071.396-.07.396-.07.396-.07.397-.069.397-.069.396-.068.398-.068.397-.068.398-.067.398-.067.398-.067.398-.066.399-.066.399-.066.399-.065.4-.065.399-.064.4-.064.4-.064.4-.064.4-.063.401-.062.402-.063.4-.062.402-.061.402-.062.402-.06.402-.061.403-.06.402-.06.403-.06.403-.059.404-.059.404-.058.403-.058.404-.058.405-.057.404-.057.405-.057.405-.056.406-.056.405-.056.406-.055.406-.055.34-.046.066-.008.406-.054.407-.054.407-.053.407-.053.408-.053.407-.052.408-.052.408-.051.408-.052.409-.05.409-.05.409-.05.409-.05.41-.05.409-.049.41-.049.41-.048.41-.048.411-.048.41-.047.412-.047.411-.047.411-.046.412-.046.412-.045.412-.045.413-.045.412-.045.413-.044.413-.044.413-.043.414-.043.414-.043.413-.043.415-.042.414-.041.415-.042.415-.04.415-.042.415-.04.415-.04.416-.04.416-.039.416-.039.416-.038.417-.038.417-.038.417-.038.417-.037.418-.037.417-.037.418-.036.418-.036.419-.035.418-.035.419-.035.419-.035.419-.034.42-.033.419-.034.42-.033.42-.033.42-.032.42-.032.421-.032.421-.031.421-.031.422-.03.421-.031.422-.03.422-.03.422-.03.423-.028.422-.029.423-.028.423-.028.423-.028.424-.027.423-.027.424-.027.424-.026.425-.026.424-.025.425-.026.425-.025.425-.024.425-.024.426-.024.426-.024.425-.023.427-.023.426-.022.427-.023.426-.021.427-.022.427-.02.428-.022.428-.02.427-.02.428-.02.428-.02.429-.019.429-.019.428-.018.43-.018.429-.018.43-.018.429-.017.43-.017.43-.016.43-.016.43-.016.43-.015.432-.016.43-.014.432-.015.431-.014.432-.014.432-.013.432-.013.432-.013.433-.012.432-.013.433-.011.433-.012.433-.01.434-.012.433-.01.434-.01.36-.008.074-.002.434-.01.435-.008.435-.009.434-.008.435-.008.435-.007.436-.007.435-.007.436-.007.436-.006.436-.006.436-.005.437-.005.437-.005.437-.005.437-.004.437-.004.438-.003.437-.004.438-.002.438-.003.438-.002.439-.002.439-.002.438-.001h.44l.439-.002h.44z"/><path d="M309.927 146.495h.455l.455.002.455.001.455.003.455.002.456.003.455.004.455.004.456.004.455.005.456.005.456.006.456.006.456.007.456.007.456.007.456.008.456.009.457.009.456.01.457.01.456.01.457.01.457.012.457.011.456.013.457.012.457.013.457.014.458.014.457.014.457.015.265.01.192.006.458.016.457.017.458.017.457.018.458.018.458.019.457.019.458.02.458.02.458.02.458.021.458.022.458.022.458.022.458.023.459.024.458.023.458.025.459.024.458.026.458.025.46.027.458.026.458.027.459.028.459.028.458.029.46.029.458.03.459.03.459.03.459.031.459.032.459.032.459.032.459.033.459.033.459.034.46.035.458.035.46.035.459.036.46.036.458.037.46.037.46.038.458.038.46.04.46.039.459.04.46.04.459.04.46.041.459.042.46.042.46.043.459.043.46.044.459.044.549.053.549.054.549.055.55.054.549.056.55.055.55.057.55.057.55.057.55.058.291.03.26.029.55.06.552.06.551.06.551.062.552.062.551.063.552.063.552.064.552.064.552.065.553.065.552.066.553.067.552.067.277.034.276.034.277.034.276.034.277.035.277.034.276.035.277.035.276.035.277.035.277.036.276.035.277.036.277.035.277.037.276.036.277.036.277.036.277.037.277.037.277.037.277.037.277.037.277.038.277.037.277.038.277.038.277.038.277.038.277.039.277.038.277.04.277.038.277.04.277.039.277.04.278.039.277.04.277.04.277.04.277.04.278.04.277.041.277.04.277.042.277.041.278.041.277.042.277.042.277.041.278.042.277.043.277.042.278.043.277.043.277.042.277.044.278.043.277.043.277.044.277.044.278.044.277.044.277.045.278.044.277.045.277.045.277.045.278.046.277.045.277.046.277.046.278.046.277.046.277.047.277.046.277.047.277.047.273.047h.005l.277.049.277.048.277.048.277.05.277.048.277.05.277.048.277.05.276.05.277.05.277.05.277.05.277.05.277.05.277.052.276.05.277.052.277.051.277.052.276.052.277.052.277.052.276.053.277.052.277.053.276.054.277.053.276.053.277.054.276.054.277.054.276.054.277.055.276.055.276.055.277.055.276.056.276.055.276.056.276.056.276.056.277.057.276.057.276.056.276.058.276.057.276.057.276.058.275.058.276.058.276.06.276.058.275.059.276.059.276.06.276.059.275.06.276.06.275.06.275.06.276.06.275.062.275.06.276.062.275.062.275.062.275.062.275.062.275.063.275.062.275.063.275.064.275.063.275.064.274.064.275.064.275.064.274.065.275.065.274.065.275.065.274.066.274.065.275.067.274.066.274.066.274.067.274.067.274.067.274.068.274.068.273.067.274.069.274.068.273.069.274.069.273.069.274.07.273.07.274.069.273.07.273.07.273.071.273.071.273.071.273.072.216.057.057.015.272.072.273.073.272.073.273.073.272.074.272.073.272.074.273.075.272.074.272.075.272.075.271.075.272.076.272.075.271.076.272.077.271.076.272.077.271.077.271.078.271.077.271.078.271.078.271.079.271.078.27.08.271.078.271.08.27.08.27.08.271.08.27.08.27.081.27.081.27.082.27.081.27.082.27.082.27.083.269.082.27.083.269.084.27.083.268.084.27.084.268.084.27.085.268.085.269.085.268.085.269.086.268.086.268.086.269.087.268.087.268.087.268.087.268.088.267.088.268.088.268.089.267.089.267.089.268.09.267.089.267.09.267.09.266.09.267.091.267.092.266.091.266.092.267.092.266.092.266.092.266.093.266.093.266.094.265.094.266.094.265.094.266.095.265.094.265.096.265.095.264.096.265.096.265.097.264.096.265.097.264.098.264.097.264.098.264.098.264.099.263.098.264.1.263.099.264.1.263.1.263.1.263.1.263.102.263.1.262.102.263.102.262.103.262.102.262.103.262.103.262.103.262.104.261.104.262.104.208.084.053.021.261.105.261.106.26.106.261.106.26.107.261.107.26.107.26.107.26.108.26.108.26.109.26.109.26.109.258.11.26.109.258.11.26.11.258.111.259.111.258.112.259.111.258.112.258.113.258.112.257.113.258.114.257.113.258.114.257.115.257.114.257.115.257.116.256.115.256.116.257.116.256.117.256.117.256.117.255.118.256.118.255.118.256.118.254.12.255.119.255.12.255.12.254.12.254.12.255.121.254.122.253.121.254.122.254.122.253.123.253.123.253.123.253.124.253.124.252.125.253.124.252.125.252.126.252.126.252.126.251.126.251.127.252.127.25.128.252.127.25.129.251.128.25.13.25.128.25.13.25.13.25.13.25.13.25.132.248.131.25.132.248.132.249.133.248.132.249.133.248.134.248.134.248.134.247.135.248.135.247.135.247.136.247.136.247.136.246.137.247.137.246.137.246.138.245.138.246.139.245.139.246.14.245.139.245.14.244.14.245.141.244.141.245.142.243.142.244.142.244.142.243.143.243.144.243.144.243.144.243.144.179.107.063.038.242.145.242.146.242.147.241.146.242.147.24.147.242.148.24.148.241.149.24.149.24.149.24.15.24.15.24.15.239.15.239.152.239.151.239.152.238.152.239.153.238.153.238.154.237.153.238.155.237.154.237.155.237.156.237.155.236.156.236.157.236.157.236.157.236.158.235.158.235.159.235.158.235.16.235.16.234.16.234.16.234.16.234.162.233.162.233.162.233.162.087.061.088.061.087.062.088.063.088.062.088.064.09.064.088.064.09.065.089.066.09.066.09.066.09.067.09.068.092.067.09.069.092.069.092.07.092.07.092.07.093.07.093.072.093.072.093.072.093.073.094.074.094.073.094.075.095.075.095.075.095.076.095.076.095.077.096.077.096.078.096.078.096.079.097.079.097.08.097.08.097.08.098.081.097.082.098.082.098.082.099.083.098.083.1.084.098.084.1.085.099.086.1.085.099.086.1.087.1.087.1.087.1.088.102.089.1.089.102.089.101.09.102.09.101.09.102.092.102.091.102.092.103.093.102.093.103.093.102.094.104.094.103.095.103.095.103.095.104.096.104.096.104.097.104.098.104.097.104.098.105.099.105.099.104.1.105.099.105.1.105.1.106.102.105.101.106.102.105.103.106.102.106.104.106.103.106.104.106.104.107.105.106.105.107.106.107.106.106.106.107.107.107.108.107.107.107.108.108.109.107.108.107.11.108.11.108.11.107.11.108.11.108.112.108.111.108.112.108.113.108.112.108.114.108.113.108.114.109.114.108.115.109.115.108.116.109.115.109.117.108.116.109.117.109.117.108.118.11.118.108.118.109.12.066.071.043.047.109.12.109.12.108.12.11.121.108.121.11.122.108.121.109.123.11.122.108.123.11.123.108.124.109.124.109.124.109.125.109.125.11.125.108.126.11.126.108.126.109.127.109.127.109.127.109.128.109.128.108.128.11.13.108.128.109.13.109.13.108.13.109.13.109.13.108.132.109.13.108.133.108.132.109.132.108.133.108.133.109.133.108.134.108.133.108.135.108.134.108.135.108.135.108.136.107.136.108.136.107.136.108.137.107.137.107.138.108.137.107.138.107.138.107.139.106.139.107.139.107.14.106.14.107.14.106.14.106.14.106.141.106.141.106.142.106.142.106.142.105.142.105.143.106.143.105.143.105.143.105.144.104.144.105.144.104.145.105.145.104.145.104.145.104.146.104.146.103.146.104.147.103.146.103.147.103.147.103.148.102.148.103.148.102.148.102.149.102.148.102.15.101.149.102.15.1.15.102.15.1.15.102.15.1.151.1.151.1.151.1.152.1.152.1.152.099.152.099.153.099.152.098.153.099.154.098.153.098.154.098.154.097.154.097.154.098.155.096.155.097.155.096.155.097.155.096.156.095.156.096.156.095.157.095.156.095.157.094.157.095.157.094.158.093.157.094.158.093.158.093.159.093.158.092.159.092.159.092.159.092.159.09.16.092.16.09.16.091.16.09.16.09.16.09.16.09.162.088.16.089.162.088.161.089.162.087.162.088.162.087.162.087.162.087.163.086.163.086.163.086.163.085.163.085.163.085.164.084.164.084.164.084.164.083.164.083.165.083.164.082.165.082.165.082.165.081.166.081.165.081.166.08.165.08.166.08.166.079.166.079.167.078.166.078.167.078.167.078.167.077.167.076.167.077.168.075.168.076.167.075.168.075.168.074.168.074.168.074.17.073.167.073.17.072.168.072.17.072.168.07.17.072.169.07.17.07.169.07.17.069.17.068.17.069.17.067.17.068.17.067.17.067.171.066.17.065.172.066.17.065.172.064.17.064.172.063.172.063.17.063.173.062.171.062.172.061.172.061.172.06.172.06.172.06.172.059.173.058.172.058.173.058.173.057.172.057.173.056.173.055.173.055.173.055.173.054.174.054.173.053.174.053.173.052.174.052.174.05.173.052.174.05.174.05.174.049.174.048.174.049.175.047.174.047.174.047.175.046.174.046.175.044.174.045.175.044.175.043.174.043.175.043.175.041.175.042.175.04.175.04.176.04.175.04.175.038.175.03.14.008.035.037.176.037.175.036.176.035.175.035.176.035.176.034.175.033.176.032.176.033.175.031.176.031.176.03.176.03.176.03.176.028.176.028.176.027.175.027.177.026.176.026.176.025.176.025.176.023.176.024.176.022.176.022.176.01.088.011.088.01.088.011.089.01.088.01.088.01.088.01.088.009.088.01.088.008.088.01.088.008.089.01.088.008.088.008.088.008.088.008.088.008.088.008.088.008.088.007.088.007.088.007.089.007.088.007.088.007.088.006.088.007.088.006.088.006.088.005.088.006.089.006.088.005.088.005.088.005.088.005.088.005.088.004.088.004.088.005.088.004.088.003.088.004.088.004.088.003.089.003.087.003.088.003.089.003.088.002.088.002.088.003.088.002.088.001.088.002.088.002.088v.088l.002.088.001.088v.088l.002.087V255.81l-.001.088v.088l-.002.088v.088l-.002.087-.002.088-.001.088-.002.088-.002.088-.002.088-.002.087-.003.088-.003.088-.002.088-.004.088-.003.087-.003.088-.004.088-.003.088-.004.087-.004.088-.005.088-.004.087-.005.088-.005.088-.005.087-.005.088-.005.088-.006.087-.005.088-.006.088-.006.087-.007.088-.006.087-.007.088-.007.087-.007.088-.007.087-.007.088-.008.087-.007.088-.008.087-.009.088-.008.087-.008.087-.009.088-.009.087-.009.088-.009.087-.01.087-.009.088-.01.087-.01.087-.01.087-.01.088-.01.087-.012.087-.01.087-.012.087-.01.088-.012.087-.012.087-.012.087-.012.087-.012.087-.013.087-.012.087-.013.087-.013.087-.013.087-.014.087-.013.087-.014.087-.014.087-.014.087-.014.086-.015.087-.015.087-.015.087-.015.087-.015.087-.016.086-.015.087-.016.087-.007.034-.01.052-.016.087-.016.086-.017.087-.017.087-.017.086-.017.087-.018.086-.018.087-.018.086-.018.086v.002l-.137.195-.238.05-.004-.001-.204-.129-.052-.228v-.002l.016-.086.016-.086.015-.085.016-.086.015-.085.015-.086.014-.085.015-.086.014-.086.014-.085.009-.052.006-.034.013-.085.014-.086.013-.086.014-.085.013-.086.012-.086.013-.086.013-.085.012-.086.012-.086.012-.086.011-.086.012-.085.011-.086.011-.086.011-.086.011-.086.01-.086.011-.086.01-.085.01-.086.01-.086.01-.086.01-.086.009-.086.008-.086.01-.086.008-.086.009-.086.008-.086.008-.086.008-.086.008-.086.007-.086.008-.086.007-.086.007-.087.007-.086.006-.086.007-.086.006-.086.006-.086.006-.086.006-.087.006-.086.005-.086.005-.086.005-.086.005-.087.005-.086.004-.086.004-.086.005-.086.003-.087.004-.086.004-.086.003-.086.004-.087.003-.086.002-.086.003-.087.003-.086.002-.086.002-.087.002-.086.002-.086.002-.087.001-.086.001-.086.002-.087v-.086l.001-.086v-.087l.001-.086V256.246l-.001-.086v-.087l-.002-.086v-.087l-.002-.086-.002-.087-.001-.086-.002-.086-.002-.087-.002-.086-.002-.087-.003-.086-.003-.087-.002-.086-.003-.086-.004-.087-.003-.087-.003-.086-.004-.086-.004-.087-.004-.086-.004-.087-.004-.086-.005-.087-.005-.086-.004-.087-.005-.086-.006-.087-.005-.086-.005-.087-.006-.086-.006-.086-.006-.087-.006-.087-.006-.086-.007-.086-.006-.087-.007-.086-.007-.087-.007-.086-.008-.087-.007-.086-.007-.087-.008-.086-.008-.087-.008-.086-.009-.087-.008-.086-.008-.087-.01-.086-.008-.086-.01-.087-.008-.086-.01-.087-.009-.086-.01-.087-.01-.086-.01-.087-.01-.086-.01-.086-.01-.087-.01-.086-.012-.087-.01-.086-.012-.087-.01-.086-.012-.086-.012-.087-.011-.086-.012-.086-.012-.087-.012-.086-.012-.087-.013-.086-.025-.173-.026-.172-.027-.173-.027-.173-.028-.172-.028-.173-.029-.172-.03-.173-.03-.172-.03-.173-.031-.172-.032-.173-.033-.172-.033-.172-.033-.173-.034-.172-.035-.172-.036-.172-.035-.172-.037-.172-.037-.172-.037-.172-.039-.172-.038-.172-.04-.172-.04-.172-.04-.171-.008-.035-.032-.137-.042-.172-.042-.171-.042-.172-.043-.171-.043-.172-.044-.171-.045-.172-.045-.17-.045-.172-.047-.171-.046-.171-.047-.171-.048-.171-.048-.171-.049-.17-.05-.171-.049-.171-.05-.17-.05-.171-.052-.17-.052-.17-.052-.171-.053-.17-.053-.17-.054-.17-.054-.17-.055-.17-.055-.17-.056-.17-.056-.17-.057-.17-.057-.169-.058-.169-.058-.17-.058-.168-.06-.17-.059-.168-.06-.17-.06-.168-.061-.169-.062-.168-.062-.169-.062-.168-.063-.169-.063-.168-.063-.168-.065-.168-.064-.168-.065-.167-.066-.168-.066-.168-.066-.167-.067-.167-.067-.168-.067-.167-.068-.167-.069-.167-.069-.166-.069-.167-.07-.166-.07-.167-.07-.166-.071-.166-.072-.166-.071-.166-.073-.166-.072-.166-.073-.165-.074-.165-.073-.166-.075-.165-.074-.165-.075-.165-.076-.164-.075-.165-.076-.164-.077-.165-.077-.164-.077-.164-.078-.163-.078-.164-.078-.164-.079-.163-.079-.164-.08-.163-.08-.162-.08-.163-.08-.163-.081-.163-.081-.162-.082-.162-.082-.162-.082-.162-.083-.162-.083-.161-.083-.162-.084-.16-.084-.162-.085-.16-.084-.162-.085-.16-.086-.16-.085-.16-.086-.16-.086-.16-.087-.16-.087-.16-.087-.16-.088-.158-.088-.16-.088-.158-.089-.159-.088-.158-.09-.159-.089-.158-.09-.158-.09-.157-.09-.158-.09-.157-.092-.157-.09-.157-.092-.157-.092-.156-.092-.157-.092-.156-.093-.156-.093-.156-.093-.155-.093-.156-.094-.155-.094-.155-.094-.155-.094-.154-.095-.155-.095-.154-.095-.154-.096-.153-.095-.154-.096-.153-.096-.153-.097-.153-.097-.153-.096-.152-.098-.153-.097-.152-.098-.151-.098-.152-.098-.151-.098-.152-.098-.15-.1-.151-.098-.15-.1-.15-.099-.15-.1-.15-.099-.15-.1-.15-.1-.148-.1-.149-.101-.149-.101-.148-.101-.148-.101-.148-.102-.148-.101-.147-.102-.147-.102-.147-.102-.146-.103-.147-.102-.146-.103-.146-.103-.146-.103-.145-.103-.145-.103-.145-.104-.145-.104-.144-.104-.144-.104-.144-.104-.143-.104-.144-.105-.143-.104-.143-.105-.142-.105-.142-.105-.143-.105-.141-.106-.142-.105-.141-.106-.14-.106-.141-.105-.14-.107-.14-.106-.14-.106-.14-.106-.14-.107-.138-.106-.14-.107-.138-.107-.138-.107-.138-.107-.137-.107-.137-.108-.137-.107-.137-.108-.136-.107-.137-.108-.136-.108-.135-.108-.135-.107-.135-.109-.135-.108-.134-.108-.134-.108-.134-.109-.133-.108-.133-.108-.133-.11-.133-.108-.132-.109-.132-.108-.131-.11-.132-.108-.13-.109-.131-.109-.13-.11-.13-.108-.13-.11-.13-.109-.129-.109-.129-.11-.128-.109-.128-.11-.128-.108-.127-.11-.127-.11-.127-.109-.127-.11-.126-.11-.126-.109-.125-.11-.125-.109-.125-.11-.125-.11-.124-.11-.123-.109-.124-.11-.123-.11-.123-.109-.122-.11-.122-.11-.122-.109-.122-.11-.12-.11-.121-.109-.12-.11-.12-.11-.12-.109-.12-.11-.118-.11-.12-.109-.117-.11-.118-.109-.118-.11-.117-.109-.117-.11-.116-.108-.116-.11-.116-.043-.045-.066-.07-.11-.115-.108-.115-.11-.114-.108-.114-.11-.114-.108-.113-.109-.113-.109-.112-.108-.112-.109-.112-.109-.112-.108-.11-.108-.111-.109-.11-.108-.11-.108-.11-.108-.109-.108-.108-.108-.108-.108-.108-.108-.108-.108-.107-.107-.106-.108-.107-.107-.106-.107-.105-.108-.105-.107-.105-.107-.104-.107-.104-.106-.104-.107-.103-.107-.102-.106-.103-.106-.102-.106-.1-.106-.102-.106-.1-.106-.1-.106-.1-.105-.1-.106-.099-.105-.098-.105-.099-.105-.097-.105-.098-.105-.097-.104-.096-.105-.096-.104-.095-.104-.096-.104-.095-.104-.094-.103-.094-.104-.093-.103-.093-.103-.093-.103-.092-.103-.092-.102-.09-.102-.092-.103-.09-.102-.09-.102-.09-.101-.089-.102-.088-.1-.088-.102-.088-.1-.087-.102-.087-.1-.086-.1-.086-.1-.086-.1-.085-.1-.084-.1-.084-.098-.084-.1-.083-.098-.083-.099-.082-.098-.082-.098-.081-.098-.08-.098-.081-.097-.08-.097-.08-.097-.079-.097-.078-.096-.078-.096-.078-.096-.077-.096-.076-.095-.076-.095-.076-.095-.075-.095-.075-.094-.074-.094-.074-.094-.073-.094-.072-.093-.073-.093-.072-.093-.07-.092-.071-.092-.07-.092-.07-.092-.07-.091-.068-.091-.069-.09-.067-.091-.068-.09-.066-.09-.067-.09-.065-.089-.066-.089-.064-.088-.065-.088-.063-.088-.063-.088-.063-.087-.062-.087-.062-.087-.061-.086-.06-.086-.06-.085-.06-.085-.06-.086-.058-.084-.058-.084-.057-.084-.057-.084-.057-.232-.156-.234-.156-.233-.156-.233-.156-.234-.155-.234-.154-.234-.155-.234-.154-.234-.153-.235-.153-.235-.153-.235-.152-.235-.152-.236-.152-.235-.15-.236-.151-.236-.15-.236-.15-.237-.15-.236-.15-.237-.148-.237-.149-.237-.148-.238-.147-.237-.148-.238-.146-.238-.147-.238-.146-.239-.146-.238-.145-.239-.145-.239-.145-.239-.144-.24-.144-.239-.143-.24-.143-.24-.143-.24-.142-.24-.142-.24-.142-.24-.14-.241-.142-.241-.14-.242-.14-.24-.14-.064-.036-.178-.103-.242-.14-.242-.138-.241-.139-.243-.138-.242-.137-.242-.138-.243-.137-.243-.136-.243-.136-.243-.136-.243-.136-.244-.135-.244-.135-.244-.134-.243-.134-.245-.133-.244-.134-.245-.133-.245-.132-.245-.132-.245-.132-.245-.132-.245-.13-.246-.132-.246-.13-.246-.13-.246-.13-.246-.129-.247-.129-.246-.128-.247-.129-.247-.128-.247-.127-.247-.127-.248-.127-.248-.127-.247-.126-.248-.125-.249-.126-.248-.125-.248-.125-.249-.124-.249-.124-.249-.124-.249-.123-.25-.123-.248-.123-.25-.122-.25-.122-.25-.122-.25-.12-.25-.122-.25-.12-.25-.12-.252-.12-.25-.12-.251-.119-.252-.119-.25-.118-.252-.119-.252-.117-.252-.118-.252-.117-.252-.117-.252-.116-.252-.116-.253-.116-.252-.116-.253-.115-.253-.115-.253-.114-.254-.114-.253-.114-.254-.113-.254-.113-.253-.113-.254-.113-.254-.112-.255-.112-.254-.111-.255-.111-.255-.111-.254-.11-.255-.11-.256-.11-.255-.11-.255-.11-.256-.108-.255-.109-.256-.108-.256-.108-.256-.107-.257-.108-.256-.106-.257-.107-.256-.106-.257-.106-.257-.106-.257-.105-.257-.105-.258-.105-.257-.104-.258-.104-.257-.104-.258-.103-.258-.104-.259-.102-.258-.103-.258-.102-.259-.102-.258-.102-.259-.1-.259-.102-.26-.1-.258-.1-.053-.02-.206-.08-.26-.1-.259-.1-.26-.1-.26-.099-.259-.099-.26-.098-.26-.098-.26-.098-.26-.098-.26-.097-.261-.097-.26-.097-.262-.096-.26-.096-.261-.096-.261-.095-.262-.096-.26-.094-.262-.095-.262-.094-.262-.094-.261-.094-.262-.093-.262-.093-.263-.093-.262-.092-.262-.093-.263-.091-.262-.092-.263-.091-.263-.091-.263-.091-.263-.09-.263-.09-.263-.09-.264-.09-.263-.09-.264-.088-.263-.089-.264-.088-.264-.088-.264-.088-.264-.088-.264-.087-.265-.087-.264-.087-.265-.086-.264-.086-.265-.086-.265-.086-.265-.085-.265-.085-.265-.084-.265-.085-.266-.084-.265-.084-.266-.083-.265-.084-.266-.083-.266-.082-.266-.083-.266-.082-.266-.082-.266-.082-.267-.081-.266-.081-.266-.081-.267-.08-.267-.08-.267-.08-.266-.08-.267-.08-.267-.08-.268-.078-.267-.079-.267-.078-.267-.078-.268-.078-.268-.078-.267-.077-.268-.077-.268-.077-.268-.076-.268-.077-.268-.076-.268-.075-.269-.076-.268-.075-.268-.075-.269-.075-.268-.074-.269-.074-.269-.074-.269-.074-.269-.073-.269-.073-.269-.073-.269-.073-.27-.072-.268-.072-.27-.072-.27-.072-.269-.07-.27-.072-.27-.07-.269-.071-.27-.07-.27-.07-.27-.07-.27-.07-.27-.07-.27-.068-.27-.07-.27-.068-.057-.014-.214-.054-.27-.07-.27-.068-.27-.068-.271-.067-.271-.068-.27-.067-.271-.068-.271-.066-.271-.067-.271-.067-.271-.066-.271-.066-.271-.065-.272-.066-.27-.065-.272-.065-.271-.065-.272-.064-.271-.064-.272-.064-.272-.064-.271-.064-.272-.063-.272-.063-.272-.063-.271-.063-.272-.062-.272-.062-.273-.062-.272-.062-.272-.061-.272-.061-.272-.061-.273-.061-.272-.06-.273-.06-.272-.061-.273-.06-.272-.06-.273-.059-.273-.06-.272-.058-.273-.059-.273-.058-.273-.058-.273-.058-.273-.058-.273-.058-.273-.057-.273-.058-.273-.056-.273-.057-.274-.057-.273-.056-.273-.056-.274-.056-.273-.055-.274-.056-.273-.055-.274-.055-.273-.055-.274-.054-.274-.055-.273-.054-.274-.054-.274-.053-.274-.054-.274-.053-.273-.053-.274-.053-.274-.053-.274-.052-.274-.052-.274-.052-.275-.052-.274-.052-.274-.051-.274-.051-.274-.051-.274-.051-.275-.05-.274-.05-.274-.051-.275-.05-.274-.05-.275-.05-.274-.049-.274-.049-.275-.049-.275-.048-.274-.049-.275-.048-.274-.048-.275-.048-.275-.048-.274-.048-.275-.047-.275-.047-.274-.047-.275-.047-.275-.047-.275-.046-.274-.046-.275-.046-.275-.046-.275-.046h-.004l-.27-.046-.275-.046-.275-.045-.275-.046-.275-.045-.275-.045-.274-.045-.275-.045-.275-.045-.275-.044-.275-.044-.275-.044-.275-.044-.275-.044-.275-.043-.275-.043-.274-.044-.275-.042-.275-.043-.275-.043-.275-.042-.275-.042-.275-.042-.275-.042-.275-.042-.275-.041-.275-.041-.275-.042-.275-.04-.275-.041-.275-.041-.275-.04-.275-.04-.275-.04-.275-.04-.275-.04-.275-.04-.275-.04-.276-.038-.275-.04-.275-.038-.275-.04-.275-.038-.275-.038-.275-.038-.274-.038-.275-.038-.275-.038-.275-.037-.275-.038-.275-.037-.275-.037-.275-.037-.275-.037-.275-.036-.275-.037-.275-.036-.275-.036-.274-.036-.275-.036-.275-.035-.275-.036-.275-.035-.275-.035-.274-.035-.275-.035-.275-.035-.274-.034-.275-.035-.275-.034-.274-.034-.275-.034-.275-.034-.274-.033-.275-.033-.274-.034-.275-.033-.275-.033-.274-.033-.549-.065-.549-.065-.549-.064-.548-.063-.549-.063-.548-.062-.548-.062-.548-.061-.548-.061-.548-.06-.548-.06-.548-.058-.547-.059-.548-.058-.258-.027-.289-.03-.547-.058-.546-.057-.547-.057-.546-.056-.547-.055-.546-.055-.546-.055-.546-.054-.545-.053-.545-.053-.456-.044-.455-.043-.456-.043-.455-.043-.456-.041-.455-.042-.455-.04-.456-.041-.455-.04-.456-.04-.455-.039-.455-.038-.456-.038-.455-.037-.455-.037-.455-.037-.455-.036-.456-.036-.455-.035-.455-.034-.455-.035-.455-.033-.455-.033-.455-.033-.455-.032-.455-.032-.455-.031-.455-.03-.455-.031-.455-.03-.454-.03-.455-.028-.455-.029-.454-.028-.455-.027-.455-.027-.454-.027-.455-.026-.454-.025-.455-.025-.454-.025-.454-.024-.455-.024-.454-.023-.454-.023-.454-.022-.454-.022-.454-.021-.454-.02-.454-.021-.454-.02-.454-.02-.454-.019-.453-.018-.454-.018-.454-.018-.453-.017-.454-.017-.453-.016-.19-.007-.264-.009-.453-.016-.453-.015-.453-.015-.453-.014-.453-.014-.453-.014-.453-.013-.453-.012-.453-.012-.453-.012-.452-.01-.453-.012-.452-.01-.453-.01-.452-.01-.453-.008-.452-.008-.452-.008-.452-.008-.452-.007-.452-.007-.452-.006-.451-.006-.452-.005-.452-.005-.451-.004-.452-.004-.451-.003-.451-.003-.452-.003-.45-.002-.452-.002-.45-.001-.451-.001h-1.352l-.45.001-.451.002-.45.001-.45.003-.45.003-.45.003-.45.003-.45.005-.45.004-.45.005-.45.005-.449.006-.45.006-.448.007-.45.007-.449.008-.448.008-.45.008-.448.009-.448.01-.449.01-.448.01-.448.01-.449.01-.448.012-.448.012-.447.012-.448.013-.448.014-.447.013-.447.014-.448.014-.447.015-.447.016-.447.015-.446.017-.447.016-.447.017-.446.018-.096.004-.35.013-.446.018-.446.019-.446.019-.446.019-.446.02-.445.02-.446.02-.445.021-.445.021-.445.022-.445.022-.445.023-.444.023-.445.024-.444.023-.444.025-.444.024-.444.025-.444.026-.444.026-.443.026-.443.027-.444.027-.443.028-.442.028-.443.028-.443.029-.442.03-.443.029-.442.03-.442.03-.442.031-.441.032-.442.031-.442.032-.44.033-.442.033-.44.033-.442.034-.44.034-.44.035-.441.034-.44.036-.44.036-.44.036-.44.036-.44.037-.439.038-.439.037-.439.039-.439.038-.438.039-.439.04-.438.04-.439.04-.437.04-.438.04-.438.042-.437.042-.438.042-.437.042-.437.043-.437.044-.436.043-.437.044-.436.045-.436.045-.436.045-.436.046-.435.046-.436.046-.435.047-.435.047-.434.048-.435.048-.435.048-.434.049-.434.05-.26.029-.174.02-.433.05-.434.05-.433.05-.433.05-.433.051-.433.052-.432.052-.433.052-.432.053-.432.053-.432.053-.431.054-.432.054-.43.055-.432.055-.43.055-.431.056-.43.056-.43.056-.43.057-.43.058-.43.057-.429.058-.429.059-.429.058-.429.06-.428.059-.428.06-.428.06-.428.06-.428.061-.427.062-.427.061-.427.062-.427.063-.426.063-.427.063-.426.063-.426.064-.425.065-.426.064-.425.065-.425.066-.424.065-.425.066-.424.067-.424.067-.424.067-.423.067-.424.068-.423.069-.423.068-.423.069-.422.07-.422.07-.422.07-.422.07-.421.07-.421.072-.421.071-.421.072-.42.072-.42.073-.42.073-.42.073-.42.073-.42.075-.418.074-.42.074-.418.075-.418.076-.418.076-.418.076-.417.076-.418.077-.417.077-.416.077-.417.078-.416.078-.416.079-.416.079-.415.08-.415.079-.415.08-.415.08-.414.08-.415.081-.413.082-.414.081-.414.082-.413.082-.413.083-.412.083-.412.083-.412.084-.412.084-.412.085-.41.084-.412.085-.41.086-.41.085-.411.086-.41.087-.41.086-.409.087-.409.088-.408.088-.409.088-.408.088-.408.089-.408.089-.407.089-.407.09-.407.09-.406.09-.406.09-.406.092-.406.091-.405.092-.405.092-.405.092-.404.093-.404.093-.404.093-.404.094-.403.094-.403.094-.402.095-.403.094-.402.096-.402.095-.401.096-.401.096-.401.097-.4.097-.401.097-.4.097-.4.098-.399.098-.399.099-.399.098-.398.1-.398.099-.398.1-.397.1-.397.1-.397.1-.397.102-.396.1-.396.102-.395.102-.396.103-.395.102-.394.103-.395.103-.393.104-.394.103-.124.033-.27.071-.393.104-.392.105-.393.105-.392.105-.392.105-.391.106-.391.106-.391.106-.39.107-.39.107-.39.107-.39.107-.389.108-.389.108-.388.109-.388.108-.388.11-.388.109-.387.11-.386.11-.387.11-.386.11-.385.111-.386.111-.385.112-.385.111-.384.112-.384.113-.384.112-.383.113-.383.113-.383.114-.382.114-.382.114-.381.114-.382.115-.38.115-.38.115-.381.115-.38.116-.38.116-.378.117-.38.116-.377.117-.379.118-.377.117-.377.118-.377.118-.377.119-.376.118-.376.12-.375.118-.375.12-.375.12-.374.12-.374.12-.374.12-.373.122-.373.12-.372.123-.373.121-.371.122-.372.123-.37.122-.371.123-.37.123-.37.124-.37.123-.369.124-.369.125-.368.124-.368.125-.368.125-.367.125-.366.126-.367.126-.366.126-.365.126-.366.127-.365.127-.364.127-.364.128-.364.128-.363.128-.363.128-.362.129-.362.128-.362.13-.361.129-.361.13-.36.13-.36.13-.36.13-.36.13-.359.132-.358.131-.358.131-.358.132-.357.132-.357.133-.356.132-.356.133-.356.133-.355.133-.355.134-.355.134-.353.134-.354.134-.353.135-.353.134-.352.135-.352.136-.352.135-.35.136-.351.136-.35.137-.35.136-.35.137-.349.137-.348.138-.348.137-.348.138-.347.138-.347.138-.346.139-.346.139-.346.14-.345.138-.345.14-.344.14-.344.14-.343.14-.306.125-.037.016-.343.14-.342.142-.341.14-.342.142-.341.142h-.002l-.547.113-.534-.092-.46-.275-.323-.432-.002-.003-.118-.518.096-.508.29-.438.455-.308.002-.001.341-.145.344-.145.343-.144.344-.145.344-.144.038-.015.307-.128.346-.144.345-.143.346-.143.347-.143.347-.142.348-.143.347-.142.349-.142.348-.141.35-.141.35-.142.35-.14.35-.14.35-.141.352-.14.352-.14.352-.14.353-.139.353-.139.353-.139.354-.138.354-.139.355-.138.355-.137.355-.138.356-.137.357-.137.356-.137.358-.136.357-.137.358-.136.359-.135.358-.136.36-.135.36-.135.36-.135.36-.134.36-.134.362-.134.362-.134.362-.133.362-.133.363-.133.364-.133.363-.132.364-.132.365-.132.365-.131.365-.131.366-.131.366-.131.366-.13.367-.13.367-.13.368-.13.368-.13.369-.128.368-.13.37-.128.37-.128.37-.128.37-.128.37-.127.371-.127.372-.127.372-.127.372-.126.373-.126.373-.126.373-.125.374-.126.374-.125.375-.124.375-.125.375-.124.376-.124.376-.123.376-.123.377-.123.377-.123.378-.122.378-.123.378-.121.379-.122.379-.121.38-.121.379-.12.38-.121.38-.12.381-.12.381-.12.382-.12.382-.118.382-.119.383-.118.383-.118.383-.118.384-.118.384-.117.385-.117.384-.116.386-.117.385-.116.386-.115.386-.116.387-.115.387-.115.387-.115.388-.114.387-.114.389-.113.388-.114.39-.113.389-.113.39-.112.39-.112.39-.112.39-.112.391-.111.392-.111.391-.11.393-.111.392-.11.392-.11.394-.11.393-.109.394-.109.394-.108.394-.108.395-.108.395-.108.395-.107.271-.073.125-.034.396-.106.396-.107.397-.106.397-.105.397-.105.398-.105.398-.105.398-.104.4-.104.398-.104.4-.103.4-.103.399-.103.4-.102.4-.102.402-.102.4-.101.402-.102.402-.1.402-.1.403-.101.402-.1.403-.1.404-.099.404-.099.403-.098.405-.098.404-.098.405-.098.405-.097.406-.097.406-.097.406-.096.406-.096.407-.096.407-.095.407-.095.408-.095.407-.094.408-.094.409-.094.409-.093.409-.093.409-.093.41-.092.41-.092.41-.092.41-.091.41-.091.412-.09.411-.091.412-.09.412-.09.412-.09.412-.089.413-.088.413-.088.414-.089.413-.087.414-.088.414-.087.414-.086.415-.086.415-.086.415-.086.416-.085.416-.085.416-.085.416-.084.417-.084.416-.084.418-.083.417-.083.418-.082.418-.083.418-.081.418-.082.419-.08.419-.082.419-.08.42-.08.42-.08.42-.08.42-.079.42-.078.42-.079.422-.078.421-.077.422-.078.422-.077.422-.076.422-.076.422-.076.423-.076.423-.075.424-.075.423-.074.424-.074.424-.074.424-.073.425-.073.424-.073.426-.072.425-.072.425-.072.426-.071.426-.07.426-.071.426-.07.427-.07.427-.07.427-.069.428-.068.427-.069.428-.068.428-.067.428-.067.429-.067.429-.067.429-.066.429-.065.43-.066.429-.065.43-.065.43-.064.43-.064.43-.063.432-.063.43-.063.432-.062.431-.063.432-.061.432-.061.432-.061.432-.06.433-.06.432-.06.433-.06.433-.06.434-.058.433-.058.434-.058.434-.057.434-.057.435-.057.434-.056.435-.057.435-.055.435-.055.436-.055.435-.055.436-.054.436-.053.437-.053.436-.053.437-.053.436-.052.175-.02.262-.032.438-.05.437-.051.438-.05.437-.05.439-.05.438-.049.438-.049.439-.048.439-.048.438-.047.44-.047.439-.047.44-.047.44-.045.44-.046.44-.045.44-.045.44-.044.44-.044.441-.044.441-.043.441-.043.442-.042.441-.042.442-.042.442-.041.442-.04.442-.041.442-.04.443-.04.443-.039.442-.039.443-.038.444-.038.443-.037.443-.038.444-.036.444-.037.444-.036.444-.035.445-.035.444-.035.445-.034.445-.034.445-.034.445-.033.445-.032.446-.033.445-.031.446-.032.446-.03.446-.031.446-.03.447-.03.446-.03.447-.029.447-.028.447-.028.447-.028.447-.027.447-.027.448-.027.448-.026.448-.025.448-.025.448-.025.448-.024.448-.024.449-.024.449-.023.448-.023.45-.022.448-.022.45-.02.449-.022.45-.02.45-.02.449-.02.353-.015.097-.004.45-.019.45-.018.45-.018.45-.017.451-.017.45-.016.452-.016.45-.015.451-.015.452-.015.45-.014.452-.014.452-.013.451-.013.452-.013.452-.012.452-.011.452-.012.452-.01.452-.01.453-.01.452-.01.453-.009.453-.008.452-.009.453-.007.454-.008.453-.006.453-.006.453-.006.454-.006.453-.005.454-.005.454-.004.454-.003.454-.004.454-.002.454-.003.454-.002.455-.001.454-.001h.909z"/></g><g fill="#000"><path d="M310.108 57.58h.656l.328.001.328.002h.328l.328.002.329.002.328.002.328.002.329.002.329.003.328.002.329.003.329.003.328.004.33.003.328.004.33.004.328.004.216.003.113.002.33.004.329.005.33.006.329.005.33.006.329.006.33.006.329.006.33.006.33.007.33.007.329.007.33.008.33.007.33.008.33.008.33.008.33.009.33.009.331.009.33.009.33.009.331.01.33.01.331.01.331.01.33.01.332.01.33.011.331.011.331.012.331.011.33.012.332.012.331.012.331.012.331.013.332.013.331.013.331.013.331.013.332.014.331.014.332.014.331.015.332.014.332.015.331.015.332.015.332.016.331.015.332.016.332.016.332.017.332.016.332.017.332.017.332.017.332.018.332.017.332.018.332.018.332.019.333.018.332.02.332.018.332.02.333.019.332.02.332.02.333.02.332.02.333.02.332.022.333.02.332.022.333.022.333.021.332.022.333.023.333.022.332.023.333.022.333.023.333.024.333.023.332.024.333.024.333.024.333.025.333.025.333.025.333.025.333.025.333.026.33.025h.003l.333.027.333.026.333.027.333.027.333.027.333.028.333.027.333.028.333.028.334.029.333.028.333.03.333.028.333.03.333.029.334.03.333.03.333.03.333.03.333.031.334.031.333.031.333.032.333.031.334.032.333.032.333.033.333.032.334.033.333.033.333.033.333.034.334.033.333.034.333.035.333.034.334.035.333.035.333.035.333.035.334.036.333.036.333.036.333.036.334.037.333.037.333.036.333.038.334.037.333.038.333.038.333.038.333.039.333.039.334.039.333.039.333.04.333.039.333.04.333.04.333.04.333.041.333.041.333.04.333.042.333.042.333.042.333.042.333.042.333.043.333.043.333.043.333.043.333.044.333.043.332.044.333.045.333.044.333.045.332.045.333.045.333.046.333.045.332.046.333.047.332.046.333.047.332.047.333.047.333.047.292.042.04.006.332.048.333.049.332.049.332.049.332.049.333.05.332.05.332.05.332.05.332.05.332.05.332.052.332.05.332.052.332.052.332.052.332.052.332.053.331.052.332.053.332.054.331.053.332.054.332.054.331.054.332.054.331.055.332.055.33.055.332.056.332.055.33.056.332.057.331.056.331.057.331.057.331.057.331.057.331.058.331.058.33.058.331.059.331.058.331.06.33.059.331.06.33.06.331.06.33.06.33.06.331.06.33.062.33.061.33.061.33.062.33.062.33.063.33.062.33.063.33.063.33.063.33.064.33.064.329.064.33.064.329.065.33.065.328.065.33.065.329.066.33.066.328.066.33.066.328.067.329.067.329.067.328.068.33.067.328.068.328.069.329.068.308.065.02.004.328.07.328.07.329.07.328.07.328.07.327.07.328.072.328.071.327.072.328.072.327.072.328.073.327.072.327.073.328.073.327.074.327.073.327.074.327.075.326.074.327.075.327.075.326.075.327.076.326.076.326.076.326.076.327.077.326.077.326.077.326.077.325.078.326.078.326.078.325.078.326.079.325.08.325.078.325.08.326.08.325.08.324.08.325.08.325.082.325.08.324.082.325.082.324.082.324.082.324.083.324.082.324.083.324.084.324.083.324.084.323.084.324.084.323.085.324.085.323.085.323.086.323.085.323.086.323.087.322.086.323.087.322.087.323.087.322.088.138.038.184.05.322.09.322.089.321.089.322.09.321.09.322.09.32.09.322.091.32.091.322.092.32.091.321.092.32.092.321.093.32.093.32.093.32.093.32.093.32.094.32.094.32.095.32.094.319.095.32.095.318.096.32.096.318.096.319.096.074.023.245.074.318.098.318.097.318.099.318.098.318.098.318.1.317.099.318.099.317.1.317.1.318.1.317.1.316.102.317.1.317.102.316.102.317.102.316.102.316.102.316.103.316.103.315.104.316.103.315.104.315.104.316.105.315.105.276.092.038.013.315.106.314.106.314.107.314.107.314.107.314.108.314.108.313.108.313.108.314.109.313.109.312.11.313.109.313.11.312.11.313.11.312.11.312.112.312.11.311.112.312.112.311.112.312.113.311.112.31.113.312.113.31.114.311.114.31.114.31.114.31.115.31.114.31.116.31.115.31.116.309.116.31.117.308.116.309.117.309.117.308.118.309.118.308.118.308.118.308.119.308.119.307.119.307.12.308.12.307.12.307.12.307.12.306.121.307.122.306.121.244.097.062.025.306.123.305.124.305.123.305.124.305.124.305.125.304.125.305.125.304.125.304.126.304.126.304.126.303.126.304.127.303.127.303.128.302.127.303.128.303.129.302.128.302.129.302.129.302.13.301.13.302.13.3.13.302.13.3.131.302.131.3.132.3.131.3.132.3.133.3.133.3.132.3.134.298.133.3.134.298.134.299.135.298.134.299.135.298.136.298.135.297.136.298.136.297.137.297.137.297.137.297.137.297.138.296.138.11.05.186.089.296.139.295.14.295.14.295.14.295.14.295.14.294.142.294.141.295.142.293.142.294.142.293.143.294.143.293.143.293.143.292.144.293.144.292.145.292.144.292.145.291.145.292.146.29.146.292.146.29.147.291.146.29.147.29.148.29.147.29.148.29.149.29.148.288.15.29.148.288.15.288.15.289.15.288.15.288.15.287.152.288.151.287.152.287.152.286.152.287.152.286.153.201.107.085.046.285.155.286.154.285.155.284.155.285.155.284.156.284.156.284.157.284.156.283.157.283.157.283.158.283.158.282.158.283.158.282.16.282.158.281.16.281.16.281.16.281.16.281.16.28.161.28.162.28.161.28.162.28.162.28.162.278.163.279.163.278.164.279.163.278.164.278.165.277.164.278.165.277.165.276.166.277.166.277.166.276.166.276.167.275.167.276.168.275.167.275.168.275.168.274.169.274.169.274.17.274.169.273.17.273.17.273.17.273.171.273.171.272.172.272.171.272.172.271.173.271.172.271.173.271.174.27.173.27.174.27.174.27.175.27.175.269.175.269.175.244.16.024.016.268.177.268.177.267.177.268.178.266.178.267.179.266.178.266.18.266.179.266.18.265.18.265.18.265.18.264.18.265.182.264.181.263.182.264.183.263.182.263.183.262.183.263.183.262.184.262.184.261.184.195.138.067.047.26.185.048.24-.255.036-.269-.174-.068-.044-.2-.13-.27-.173-.269-.173-.27-.173-.27-.172-.27-.172-.27-.172-.27-.171-.27-.171-.272-.171-.271-.17-.271-.17-.272-.17-.272-.17-.272-.169-.273-.169-.272-.168-.273-.168-.273-.168-.274-.167-.273-.168-.274-.166-.274-.167-.275-.166-.274-.166-.275-.165-.025-.015-.25-.15-.274-.166-.275-.165-.275-.165-.275-.165-.276-.164-.276-.164-.276-.164-.276-.163-.277-.163-.276-.162-.277-.163-.278-.161-.277-.162-.278-.161-.278-.161-.278-.16-.278-.161-.279-.16-.278-.16-.28-.16-.279-.158-.28-.159-.279-.158-.28-.158-.28-.158-.28-.157-.28-.157-.281-.157-.281-.157-.282-.156-.28-.156-.283-.155-.281-.155-.282-.155-.283-.155-.282-.154-.283-.154-.283-.153-.283-.153-.283-.153-.284-.153-.284-.152-.284-.152-.284-.152-.284-.15-.285-.152-.285-.15-.285-.15-.285-.151-.285-.15-.286-.15-.286-.148-.286-.149-.286-.148-.287-.148-.286-.148-.287-.148-.287-.147-.288-.147-.287-.146-.288-.147-.288-.145-.288-.146-.288-.145-.289-.145-.289-.145-.288-.144-.29-.144-.289-.144-.29-.144-.085-.042-.204-.101-.29-.144-.289-.143-.29-.143-.29-.143-.29-.142-.29-.142-.29-.142-.292-.141-.29-.141-.292-.14-.291-.141-.292-.14-.292-.14-.292-.14-.292-.14-.292-.138-.293-.139-.293-.138-.293-.138-.293-.138-.293-.137-.294-.137-.293-.137-.294-.136-.294-.137-.294-.135-.295-.136-.295-.135-.294-.135-.295-.135-.296-.134-.295-.134-.296-.134-.295-.133-.296-.133-.296-.133-.297-.132-.296-.132-.297-.132-.297-.132-.297-.131-.297-.131-.297-.13-.298-.131-.298-.13-.297-.13-.189-.081-.11-.049-.297-.13-.298-.129-.299-.13-.298-.128-.299-.129-.299-.128-.299-.128-.299-.128-.299-.127-.3-.127-.299-.127-.3-.127-.3-.126-.3-.126-.3-.126-.3-.125-.302-.125-.3-.125-.302-.124-.3-.124-.302-.124-.302-.124-.301-.123-.302-.123-.302-.123-.302-.122-.303-.122-.302-.122-.303-.121-.303-.121-.303-.121-.303-.12-.304-.121-.303-.12-.304-.12-.304-.119-.303-.12-.305-.118-.304-.118-.305-.119-.304-.117-.305-.118-.305-.117-.305-.118-.305-.116-.306-.117-.305-.116-.306-.116-.306-.115-.306-.115-.306-.115-.306-.115-.063-.023-.244-.092-.306-.115-.306-.115-.307-.114-.307-.114-.307-.114-.307-.114-.307-.113-.307-.113-.308-.113-.307-.112-.308-.112-.308-.112-.308-.111-.308-.112-.309-.11-.309-.111-.308-.11-.309-.11-.309-.11-.309-.11-.31-.11-.309-.108-.31-.109-.309-.108-.31-.108-.31-.108-.31-.107-.31-.108-.31-.107-.311-.106-.31-.107-.312-.106-.31-.105-.312-.106-.311-.105-.311-.105-.312-.105-.312-.104-.311-.104-.312-.104-.312-.103-.313-.104-.312-.102-.312-.103-.313-.102-.313-.102-.313-.102-.313-.102-.313-.101-.313-.1-.313-.102-.314-.1-.314-.1-.313-.1-.314-.1-.039-.011-.275-.088-.314-.1-.314-.1-.314-.099-.314-.099-.315-.098-.314-.099-.315-.098-.315-.098-.314-.097-.316-.098-.315-.097-.315-.096-.315-.097-.316-.096-.315-.096-.316-.095-.316-.096-.316-.095-.316-.094-.316-.095-.317-.094-.316-.094-.317-.094-.316-.093-.317-.093-.317-.093-.317-.093-.243-.07-.074-.022-.317-.093-.318-.092-.317-.092-.317-.092-.318-.092-.317-.091-.318-.091-.318-.09-.318-.091-.318-.09-.318-.09-.319-.09-.318-.09-.319-.088-.318-.09-.319-.088-.319-.088-.319-.088-.319-.088-.32-.087-.319-.087-.319-.087-.32-.087-.32-.086-.319-.086-.32-.086-.32-.086-.32-.085-.183-.049-.137-.036-.32-.086-.32-.085-.32-.085-.32-.085-.32-.084-.321-.084-.321-.084-.32-.084-.322-.083-.32-.083-.322-.083-.32-.082-.322-.083-.321-.082-.322-.081-.321-.082-.322-.081-.322-.08-.321-.081-.322-.08-.322-.08-.322-.08-.322-.08-.323-.08-.322-.079-.323-.079-.322-.078-.323-.078-.322-.078-.323-.078-.323-.077-.323-.078-.323-.077-.323-.076-.324-.077-.323-.076-.324-.076-.323-.075-.324-.076-.323-.075-.324-.075-.324-.074-.324-.075-.324-.074-.324-.073-.324-.074-.324-.073-.325-.073-.324-.073-.325-.072-.324-.072-.325-.072-.325-.072-.325-.072-.325-.07-.325-.072-.325-.07-.325-.07-.325-.07-.325-.07-.326-.07-.325-.07-.325-.069-.326-.069-.326-.068-.325-.068-.326-.068-.326-.068-.326-.068-.02-.004-.306-.064-.326-.067-.326-.067-.326-.067-.326-.067-.326-.067-.327-.066-.326-.066-.326-.066-.327-.065-.327-.065-.326-.065-.327-.065-.327-.064-.326-.064-.327-.064-.327-.064-.327-.064-.327-.063-.327-.063-.328-.062-.327-.063-.327-.062-.328-.062-.327-.061-.327-.062-.328-.061-.328-.06-.327-.061-.328-.061-.328-.06-.328-.06-.328-.06-.328-.059-.328-.06-.328-.058-.328-.058-.328-.059-.328-.058-.328-.058-.329-.057-.328-.058-.328-.057-.329-.057-.328-.056-.329-.057-.329-.056-.328-.056-.329-.055-.329-.056-.329-.055-.328-.055-.33-.054-.328-.055-.33-.054-.328-.054-.33-.053-.328-.054-.33-.053-.329-.053-.329-.052-.33-.053-.328-.052-.33-.052-.329-.051-.33-.052-.33-.051-.329-.05-.33-.051-.329-.05-.33-.051-.329-.05-.33-.05-.33-.05-.329-.048-.33-.05-.33-.048-.33-.048-.33-.049-.33-.047-.33-.048-.33-.048-.038-.005-.291-.042-.33-.048-.33-.047-.33-.046-.33-.047-.33-.046-.33-.046-.33-.046-.33-.046-.331-.045-.33-.045-.33-.045-.33-.045-.331-.044-.33-.044-.33-.044-.331-.044-.33-.043-.331-.044-.33-.042-.331-.043-.33-.043-.331-.042-.33-.042-.331-.042-.33-.041-.331-.041-.33-.041-.331-.041-.331-.04-.33-.041-.331-.04-.331-.04-.33-.04-.331-.039-.331-.039-.33-.039-.332-.038-.33-.039-.331-.038-.331-.038-.33-.038-.332-.037-.33-.037-.331-.037-.331-.037-.33-.037-.332-.036-.33-.036-.331-.036-.331-.035-.331-.036-.331-.035-.33-.035-.332-.034-.33-.035-.332-.034-.33-.034-.331-.033-.331-.034-.331-.033-.331-.033-.331-.033-.33-.032-.332-.033-.33-.032-.332-.032-.33-.031-.331-.032-.331-.03-.331-.032-.33-.03-.332-.03-.33-.031-.331-.03-.331-.03-.331-.03-.331-.029-.33-.029-.332-.028-.33-.029-.331-.028-.331-.029-.33-.027-.332-.028-.33-.028-.331-.027-.331-.027-.33-.027-.331-.026-.331-.026h-.002l-.329-.027-.33-.026-.331-.025-.33-.026-.331-.026-.33-.025-.331-.025-.33-.024-.331-.025-.33-.024-.331-.024-.331-.024-.33-.023-.33-.024-.331-.023-.33-.023-.331-.022-.33-.023-.33-.022-.331-.022-.33-.022-.33-.021-.33-.022-.33-.02-.331-.022-.33-.02-.33-.02-.33-.02-.33-.02-.33-.02-.33-.02-.33-.02-.33-.018-.33-.02-.33-.018-.33-.018-.33-.018-.33-.018-.33-.018-.33-.018-.33-.017-.329-.017-.33-.017-.33-.017-.329-.016-.33-.016-.329-.016-.329-.016-.33-.016-.329-.015-.33-.015-.328-.015-.33-.014-.329-.015-.33-.014-.328-.014-.33-.014-.328-.013-.33-.014-.328-.013-.33-.013-.328-.013-.329-.012-.329-.012-.328-.012-.329-.012-.329-.012-.328-.011-.329-.011-.328-.011-.329-.011-.328-.01-.328-.011-.329-.01-.328-.01-.328-.01-.328-.009-.329-.01-.328-.008-.328-.01-.328-.008-.328-.008-.327-.008-.328-.008-.328-.008-.327-.007-.328-.008-.328-.007-.327-.007-.328-.006-.327-.007-.327-.006-.327-.006-.328-.006-.327-.005-.327-.006-.113-.002-.214-.003-.327-.005-.327-.005-.326-.005-.327-.005-.327-.004-.326-.004-.327-.004-.327-.004-.326-.003-.326-.003-.327-.003-.326-.003-.326-.003-.326-.002-.326-.003-.326-.002-.326-.001-.326-.002-.326-.001-.325-.001-.326-.001-.326-.001h-.325l-.325-.001h-1.301l-.325.001-.325.001-.325.001-.325.001-.324.002-.325.002-.325.002-.324.002-.324.002-.325.003-.324.003-.324.002-.324.004-.324.003-.324.003-.324.004-.324.004-.323.004-.324.005-.323.004-.324.005-.323.005-.323.005-.323.006-.323.005-.323.006-.323.006-.323.006-.323.007-.322.006-.323.007-.322.007-.323.007-.322.008-.322.008-.322.007-.322.008-.322.009-.321.008-.322.009-.322.008-.321.01-.322.009-.32.01-.322.009-.321.01-.321.01-.321.01-.32.01-.322.01-.32.012-.32.01-.321.012-.32.011-.32.012-.32.011-.32.012-.32.013-.32.012-.32.013-.32.013-.319.012-.32.014-.318.013-.32.014-.319.013-.318.014-.32.014-.318.015-.319.014-.318.015-.319.015-.318.015-.318.015-.318.016-.318.016-.318.016-.317.016-.318.016-.317.016-.318.017-.317.017-.317.017-.317.017-.317.018-.317.017-.316.018-.317.018-.316.018-.316.019-.317.018-.316.02-.316.018-.315.02-.316.019-.316.02-.315.02-.315.019-.316.02-.315.02-.315.02-.314.022-.315.02-.315.022-.314.02-.314.022-.315.022-.314.022-.313.022-.314.022-.314.022-.313.023-.314.023-.313.023-.313.023-.313.023-.313.024-.313.023-.312.024-.313.024-.312.024-.312.025-.312.025-.312.024-.312.025-.312.026-.311.025-.311.026-.312.025-.31.026-.312.026-.31.027-.311.026-.31.027-.311.026-.31.028-.31.027-.31.027-.31.028-.31.028-.31.027-.309.029-.309.028-.309.028-.309.03-.309.028-.308.029-.309.03-.308.028-.308.03-.308.03-.308.03-.308.03-.307.03-.308.03-.307.031-.307.031-.307.031-.307.031-.307.032-.306.031-.306.032-.307.032-.306.032-.305.032-.306.033-.306.033-.218.023-.087.01-.305.032-.306.033-.304.033-.305.034-.305.033-.304.034-.305.034-.304.034-.304.034-.304.035-.303.035-.304.034-.303.035-.303.035-.303.036-.303.035-.302.036-.303.036-.302.036-.302.036-.302.036-.302.037-.302.037-.301.036-.302.038-.3.037-.302.037-.3.038-.3.038-.301.038-.3.038-.3.038-.3.038-.3.04-.3.038-.3.039-.298.039-.3.04-.298.039-.3.04-.297.04-.299.04-.298.04-.298.04-.298.04-.297.041-.298.04-.297.042-.297.041-.297.041-.296.042-.297.042-.296.041-.296.043-.296.042-.296.042-.296.043-.295.042-.295.043-.295.043-.295.044-.295.043-.294.043-.294.044-.294.044-.294.044-.294.044-.293.045-.293.044-.294.045-.292.045-.293.045-.293.045-.292.046-.292.045-.292.046-.292.046-.291.046-.292.046-.29.046-.292.047-.29.046-.29.047-.291.047-.29.047-.29.048-.29.047-.29.048-.289.048-.289.048-.289.048-.289.048-.288.049-.288.049-.288.048-.288.05-.288.048-.287.05-.288.05-.287.049-.286.05-.287.05-.287.05-.286.05-.286.05-.286.05-.285.051-.286.051-.285.051-.285.052-.284.051-.285.051-.284.052-.284.052-.284.052-.284.052-.283.052-.284.053-.282.053-.283.052-.283.053-.282.053-.282.054-.282.053-.282.054-.281.053-.282.054-.28.054-.281.054-.28.055-.281.054-.28.055-.28.055-.28.055-.28.055-.279.055-.279.056-.279.055-.278.056-.278.056-.278.056-.278.056-.278.057-.277.056-.277.057-.277.057-.277.056-.277.058-.276.057-.276.057-.276.058-.275.058-.275.058-.276.058-.274.058-.275.058-.274.059-.274.058-.274.059-.274.059-.273.059-.273.06-.273.059-.273.06-.273.059-.272.06-.272.06-.271.06-.272.06-.271.06-.271.061-.12.027-.151.034-.27.06-.27.062-.27.06-.27.062-.27.062h-.003l-.536.018-.49-.174-.385-.334-.228-.46-.001-.005-.02-.509.183-.465.351-.367.486-.217h.002l.271-.064.271-.063.272-.062.272-.063.272-.062.153-.035.12-.028.273-.062.273-.062.273-.061.273-.062.274-.062.274-.06.274-.062.274-.061.275-.061.275-.06.275-.061.275-.06.276-.061.276-.06.276-.06.276-.06.277-.06.276-.06.277-.059.278-.059.277-.059.278-.059.278-.059.278-.058.278-.059.279-.058.279-.058.28-.058.278-.058.28-.058.28-.057.28-.058.28-.057.28-.057.281-.057.281-.057.281-.056.282-.057.281-.056.282-.056.282-.056.282-.056.283-.056.282-.055.284-.056.283-.055.283-.055.284-.055.284-.055.284-.054.284-.055.284-.054.285-.054.285-.054.285-.054.286-.053.285-.054.286-.053.286-.054.286-.053.286-.052.287-.053.287-.052.287-.053.287-.052.288-.052.288-.052.288-.052.288-.051.288-.052.289-.051.288-.051.29-.051.288-.05.29-.051.29-.05.29-.051.29-.05.29-.05.29-.05.29-.05.291-.049.291-.05.292-.048.291-.05.292-.048.291-.049.293-.048.292-.049.292-.048.293-.048.293-.048.293-.047.293-.048.293-.047.294-.047.294-.047.294-.047.294-.047.295-.046.294-.047.295-.046.295-.046.295-.046.296-.045.295-.046.296-.045.296-.045.296-.045.297-.045.296-.045.297-.044.297-.045.297-.044.297-.044.298-.044.297-.043.298-.044.298-.043.298-.043.299-.043.298-.043.299-.043.299-.042.299-.042.3-.043.299-.042.3-.041.3-.042.3-.041.3-.042.3-.04.3-.042.302-.04.3-.041.302-.04.3-.04.302-.04.302-.04.302-.04.302-.04.302-.04.302-.038.303-.04.303-.038.303-.039.303-.039.303-.038.303-.038.304-.038.304-.038.304-.037.304-.038.304-.037.304-.037.305-.037.305-.037.304-.037.306-.036.305-.036.305-.036.306-.036.305-.036.306-.035.306-.036.307-.035.306-.035.307-.034.306-.035.307-.035.307-.034.088-.01.22-.024.307-.034.307-.033.308-.034.308-.033.308-.033.308-.033.308-.033.309-.032.309-.033.308-.032.31-.032.308-.031.31-.032.31-.032.309-.03.31-.032.31-.03.31-.032.31-.03.31-.03.31-.03.31-.03.312-.03.31-.03.312-.03.31-.029.312-.029.312-.029.311-.028.312-.029.312-.028.312-.028.312-.028.313-.028.312-.028.313-.027.313-.028.313-.027.313-.026.313-.027.313-.027.314-.026.313-.026.314-.026.314-.026.314-.025.314-.025.315-.026.314-.025.315-.025.314-.024.315-.025.315-.024.315-.024.316-.024.315-.024.316-.023.315-.023.316-.024.316-.022.316-.023.316-.023.317-.022.316-.022.317-.022.316-.022.317-.022.317-.021.317-.021.317-.021.318-.021.317-.02.318-.021.318-.02.317-.02.318-.02.318-.02.318-.02.319-.019.318-.02.319-.018.319-.019.318-.018.32-.019.318-.018.32-.018.319-.018.32-.017.319-.017.32-.018.319-.017.32-.016.32-.017.32-.016.32-.017.32-.016.32-.015.321-.016.32-.015.322-.016.32-.015.322-.015.32-.014.322-.015.321-.014.322-.014.321-.014.322-.013.321-.014.322-.013.322-.013.322-.013.322-.013.323-.012.322-.013.323-.012.322-.011.323-.012.323-.012.322-.01.323-.012.324-.01.323-.011.323-.01.323-.011.324-.01.323-.01.324-.01.324-.01.324-.009.324-.009.324-.008.324-.01.324-.008.324-.008.325-.008.324-.008.325-.007.325-.008.325-.007.324-.007.325-.007.325-.007.326-.006.325-.006.325-.006.326-.006.325-.006.326-.005.325-.005.326-.005.326-.005.326-.005.326-.004.326-.004.326-.004.327-.004.326-.004.326-.003.327-.003.327-.003.326-.003.327-.002.327-.003.327-.002.327-.002.327-.001.327-.002.327-.001.328-.001.327-.001h.328l.327-.001h.655z"/><path d="M311.884 47.827h.579l.289.002h.29l.289.002h.29l.289.002.29.002.289.002.29.002.29.002.289.002.29.003.29.003.29.003.289.003.29.003.29.004.29.003.29.004.29.004.289.005.29.004.29.005.29.005.29.005.29.005.29.005.29.006.29.006.29.006.29.006.29.006.291.007.29.006.29.007.29.007.291.008.29.007.29.008.291.008.29.008.291.008.29.009.29.008.291.009.29.009.291.01.29.009.291.01.29.009.292.01.29.01.29.01.292.011.29.01.29.012.292.011.29.011.291.012.29.012.292.011.29.013.291.012.291.012.291.013.29.013.292.013.29.013.292.014.29.013.292.014.29.014.292.015.29.014.292.015.291.014.291.015.291.016.291.015.291.016.292.015.29.016.292.016.291.017.292.017.29.016.292.017.291.017.292.018.291.017.291.018.292.018.291.018.291.018.292.02.291.018.292.019.291.019.292.02.291.019.292.02.032.002.26.018.29.02.292.02.292.021.291.021.292.021.291.021.292.022.292.022.291.022.292.022.291.022.292.023.292.022.291.023.292.023.292.024.292.023.291.024.292.024.292.024.292.024.291.025.292.024.292.025.292.025.292.026.291.025.292.026.292.026.292.026.292.026.292.027.292.026.292.027.292.027.292.028.291.027.292.028.292.028.292.028.292.028.292.029.292.028.292.03.292.029.292.029.293.03.291.03.293.03.292.03.292.03.292.03.292.03.292.032.292.03.292.032.292.032.292.031.293.033.292.032.292.032.292.033.292.033.292.032.293.034.292.033.292.034.292.033.292.034.293.035.292.034.292.035.292.035.293.035.292.035.292.035.292.036.292.036.293.036.292.036.292.037.293.036.292.037.292.037.292.038.293.037.292.038.292.038.293.038.292.038.292.039.293.039.292.038.292.04.292.04.293.039.292.04.292.04.293.04.292.04.293.04.292.041.292.041.293.042.292.041.292.042.293.042.292.042.292.042.293.043.292.042.292.043.293.043.292.044.292.043.293.044.292.044.292.044.293.044.292.045.293.045.292.045.292.045.293.046.292.045.292.046.293.046.292.047.292.046.293.047.292.047.293.047.292.047.292.048.293.047.292.048.292.049.293.048.292.049.292.048.293.05.292.049.292.05.293.049.292.05.243.041.05.009.292.05.292.051.292.051.292.052.293.051.292.052.292.052.292.052.293.053.292.052.292.053.292.053.292.053.293.054.292.053.292.054.292.054.292.055.293.054.292.055.292.055.292.055.292.055.292.056.292.056.293.056.292.056.292.056.292.057.292.057.292.057.292.057.292.058.292.058.292.058.292.058.292.058.292.059.292.059.293.059.291.059.293.06.291.06.292.06.292.06.292.06.292.06.292.061.292.061.292.061.292.062.292.061.292.062.292.062.292.063.291.062.292.063.292.063.292.063.292.064.292.063.292.064.291.064.042.01.25.055.292.064.292.065.291.066.292.065.292.066.291.066.292.066.291.066.292.066.292.067.291.067.292.067.291.068.292.067.291.068.292.068.291.068.292.069.291.069.292.069.291.069.292.07.291.069.292.07.29.07.292.07.292.07.291.071.291.071.292.071.29.072.292.072.291.071.292.072.291.073.291.072.292.073.29.073.292.073.291.074.291.073.291.074.291.074.291.074.292.075.29.075.292.075.29.075.292.075.29.076.292.076.29.076.291.076.291.077.291.077.291.076.291.078.29.077.292.078.29.078.291.078.291.078.29.079.292.079.29.079.29.079.197.053.095.026.29.08.29.08.291.081.29.08.291.081.29.081.291.082.29.081.291.082.29.082.29.082.291.083.29.082.29.083.291.083.29.084.29.083.29.084.291.084.29.084.29.085.29.085.29.085.29.085.29.085.29.086.29.086.29.086.29.086.29.087.29.086.29.087.29.088.29.087.29.088.29.088.29.088.29.088.29.089.289.089.29.089.29.09.289.089.29.09.289.09.29.09.29.09.289.091.289.09.29.092.289.091.29.092.289.092.289.092.29.092.288.093.29.093.289.093.29.093.288.094.29.093.289.094.289.094.289.095.289.095.289.094.289.095.289.096.289.095.289.096.288.096.29.097.288.096.289.097.289.097.288.097.289.098.289.097.288.098.289.098.288.099.29.098.288.1.288.098.289.1.288.1.288.1.289.1.288.1.288.1.289.1.288.102.288.101.288.101.288.102.288.102.288.102.289.103.288.102.288.103.288.103.288.104.287.103.288.104.288.104.288.104.288.105.287.105.288.105.288.105.287.106.288.105.287.106.288.107.287.106.288.107.287.107.288.107.287.107.287.108.288.108.287.108.287.108.287.109.287.109.287.109.288.11.287.109.287.11.287.11.21.08.076.03.287.11.287.112.287.11.286.112.287.112.287.112.286.112.287.112.286.113.287.113.286.113.287.114.286.113.286.114.287.114.286.115.286.114.286.115.286.115.286.115.287.116.286.116.286.116.285.116.286.116.286.117.286.117.286.117.286.118.285.118.286.118.286.118.285.118.286.12.285.118.286.12.285.119.285.12.286.12.285.12.285.12.286.12.285.122.285.12.285.122.285.122.285.122.285.122.285.122.285.123.284.123.285.123.285.123.285.124.285.124.284.124.285.124.284.125.285.124.284.126.285.125.284.125.284.126.285.126.284.127.284.126.284.127.284.127.284.127.284.128.284.128.284.128.284.128.284.129.284.128.283.13.284.129.284.13.283.129.284.13.283.13.284.131.283.13.284.132.283.131.283.132.283.131.283.132.284.133.283.132.283.133.283.133.283.133.283.134.283.133.282.134.283.135.283.134.283.135.282.135.283.135.282.136.283.136.282.136.283.136.282.136.282.137.282.137.282.137.283.138.282.138.282.138.282.138.282.139.282.138.281.14.282.139.282.14.281.14.282.14.282.14.281.14.282.14.281.142.281.141.282.142.281.142.281.142.281.142.282.143.28.142.282.143.28.144.281.143.281.144.281.145.28.144.282.144.28.145.059.181-.191.054-.282-.142-.282-.142-.283-.14-.282-.142-.282-.14-.283-.141-.282-.14-.282-.14-.283-.14-.282-.14-.283-.139-.283-.139-.282-.138-.283-.139-.283-.138-.283-.138-.283-.138-.283-.137-.283-.137-.283-.137-.283-.137-.283-.136-.283-.136-.283-.136-.283-.136-.284-.135-.283-.135-.283-.135-.284-.135-.283-.134-.284-.134-.283-.134-.284-.134-.283-.133-.284-.133-.284-.133-.284-.133-.283-.132-.284-.132-.284-.132-.284-.132-.284-.13-.284-.132-.284-.13-.284-.131-.284-.13-.284-.13-.285-.13-.284-.13-.284-.13-.285-.129-.284-.129-.284-.128-.285-.128-.285-.128-.284-.128-.285-.128-.284-.127-.285-.127-.285-.127-.284-.127-.285-.126-.285-.126-.285-.126-.285-.125-.285-.126-.285-.125-.285-.125-.285-.124-.285-.125-.285-.124-.285-.123-.285-.124-.286-.123-.285-.124-.285-.122-.286-.123-.285-.122-.286-.122-.285-.122-.286-.122-.285-.121-.286-.121-.286-.121-.285-.12-.286-.121-.286-.12-.286-.12-.285-.12-.286-.12-.286-.118-.286-.12-.286-.118-.286-.118-.286-.118-.286-.118-.286-.118-.286-.118-.287-.117-.286-.117-.286-.116-.286-.117-.287-.116-.286-.116-.287-.115-.286-.116-.287-.115-.286-.115-.286-.115-.287-.114-.287-.115-.286-.114-.287-.113-.287-.114-.286-.113-.287-.113-.287-.113-.287-.112-.287-.113-.287-.112-.287-.112-.287-.111-.287-.111-.287-.111-.287-.111-.287-.11-.287-.111-.287-.11-.287-.11-.288-.11-.287-.11-.287-.108-.288-.11-.287-.108-.287-.108-.288-.108-.287-.108-.288-.108-.287-.108-.076-.028-.212-.079-.287-.107-.288-.107-.287-.107-.288-.106-.288-.106-.287-.106-.288-.106-.288-.105-.287-.106-.288-.105-.288-.104-.288-.105-.288-.104-.288-.104-.288-.104-.288-.104-.287-.103-.288-.103-.288-.103-.289-.102-.288-.103-.288-.102-.288-.102-.288-.101-.288-.102-.289-.101-.288-.101-.288-.1-.288-.101-.289-.1-.288-.1-.289-.1-.288-.1-.289-.099-.288-.099-.288-.099-.29-.098-.288-.099-.288-.098-.289-.098-.289-.097-.288-.098-.289-.097-.289-.097-.288-.096-.29-.097-.288-.096-.289-.096-.289-.096-.288-.095-.29-.096-.288-.094-.29-.095-.288-.095-.29-.094-.288-.094-.29-.094-.288-.094-.29-.093-.289-.093-.289-.093-.289-.093-.29-.092-.288-.092-.29-.092-.289-.092-.29-.092-.289-.091-.289-.091-.29-.09-.289-.091-.29-.09-.289-.09-.289-.09-.29-.09-.289-.09-.29-.089-.289-.089-.29-.089-.29-.088-.289-.088-.29-.088-.289-.088-.29-.088-.29-.087-.289-.087-.29-.087-.29-.087-.29-.086-.29-.086-.289-.086-.29-.086-.29-.085-.29-.086-.29-.084-.29-.085-.29-.085-.29-.084-.29-.084-.29-.084-.29-.084-.29-.083-.29-.083-.29-.083-.29-.083-.29-.082-.29-.083-.29-.082-.29-.082-.29-.081-.29-.081-.29-.082-.29-.08-.291-.081-.29-.08-.29-.08-.29-.08-.291-.08-.29-.08-.29-.08-.291-.078-.29-.08-.291-.078-.29-.078-.291-.078-.29-.078-.29-.078-.291-.077-.29-.077-.291-.077-.095-.026-.196-.051-.29-.077-.29-.077-.291-.076-.291-.076-.29-.076-.291-.076-.29-.075-.291-.075-.29-.075-.291-.075-.291-.074-.29-.075-.291-.074-.291-.074-.29-.073-.292-.074-.29-.073-.291-.073-.29-.072-.292-.073-.29-.072-.291-.072-.29-.072-.292-.072-.29-.071-.291-.071-.291-.071-.291-.07-.291-.071-.29-.07-.292-.07-.29-.07-.292-.07-.29-.07-.292-.068-.29-.07-.292-.068-.29-.069-.292-.068-.29-.068-.292-.068-.29-.067-.292-.067-.29-.068-.292-.066-.291-.067-.291-.067-.291-.066-.291-.066-.291-.066-.292-.065-.29-.066-.292-.065-.29-.065-.292-.064-.291-.065-.292-.064-.29-.064-.292-.064-.291-.064-.291-.063-.292-.063-.291-.063-.291-.063-.292-.062-.29-.063-.251-.053-.041-.009-.291-.062-.291-.062-.292-.061-.291-.062-.291-.06-.292-.062-.29-.06-.292-.061-.291-.06-.292-.06-.291-.06-.291-.06-.292-.06-.291-.059-.291-.06-.292-.058-.291-.058-.291-.059-.292-.058-.291-.058-.292-.058-.29-.057-.292-.057-.292-.058-.291-.056-.292-.057-.29-.056-.292-.057-.292-.056-.291-.055-.292-.056-.291-.055-.292-.055-.291-.055-.291-.055-.292-.054-.291-.055-.292-.054-.291-.054-.292-.053-.291-.054-.292-.053-.291-.053-.292-.052-.291-.053-.292-.052-.291-.052-.292-.052-.291-.052-.292-.052-.291-.05-.292-.052-.291-.05-.292-.051-.291-.05-.292-.05-.291-.05-.292-.05-.291-.05-.292-.05-.291-.049-.292-.049-.291-.048-.05-.008-.242-.041-.291-.049-.292-.048-.291-.048-.292-.048-.291-.048-.292-.048-.291-.047-.292-.047-.291-.047-.292-.047-.291-.046-.292-.047-.291-.046-.292-.046-.291-.045-.292-.046-.291-.045-.291-.045-.292-.045-.291-.044-.292-.045-.291-.044-.292-.044-.291-.044-.292-.043-.291-.044-.292-.043-.291-.043-.292-.043-.291-.042-.291-.042-.292-.043-.291-.041-.292-.042-.291-.042-.292-.04-.291-.042-.292-.04-.291-.041-.292-.04-.291-.041-.291-.04-.292-.04-.291-.04-.292-.039-.291-.039-.291-.04-.292-.038-.291-.038-.292-.039-.291-.038-.291-.038-.292-.038-.291-.037-.292-.037-.291-.038-.291-.036-.292-.037-.291-.037-.291-.036-.292-.036-.291-.036-.291-.036-.292-.035-.291-.035-.291-.035-.292-.035-.291-.035-.291-.034-.292-.035-.29-.034-.292-.033-.291-.034-.292-.034-.291-.033-.291-.033-.291-.033-.292-.032-.29-.033-.292-.032-.291-.032-.291-.031-.292-.032-.29-.031-.292-.032-.291-.03-.291-.031-.291-.031-.292-.03-.29-.03-.292-.03-.291-.03-.291-.03-.291-.03-.291-.028-.291-.03-.291-.028-.291-.028-.291-.029-.292-.028-.29-.028-.291-.028-.292-.027-.29-.028-.291-.027-.291-.027-.291-.026-.291-.027-.291-.026-.291-.026-.291-.026-.29-.026-.292-.026-.29-.025-.292-.025-.29-.025-.291-.025-.291-.024-.291-.024-.29-.025-.292-.024-.29-.023-.291-.024-.29-.023-.292-.023-.29-.023-.291-.023-.29-.022-.291-.023-.291-.022-.29-.022-.291-.022-.291-.021-.29-.022-.291-.02-.29-.022-.291-.02-.291-.021-.29-.02-.291-.02-.29-.02-.291-.02-.29-.02-.291-.02-.29-.018-.26-.017-.03-.002-.291-.02-.29-.018-.291-.019-.29-.018-.29-.018-.291-.018-.29-.018-.29-.018-.291-.017-.29-.017-.29-.017-.29-.017-.29-.017-.291-.016-.29-.017-.29-.016-.29-.015-.29-.016-.29-.016-.29-.015-.291-.015-.29-.015-.29-.015-.29-.014-.29-.014-.29-.014-.29-.014-.29-.014-.29-.014-.29-.013-.29-.013-.29-.013-.29-.013-.29-.012-.289-.013-.29-.012-.29-.012-.29-.012-.29-.011-.289-.012-.29-.011-.29-.011-.289-.01-.29-.011-.289-.01-.29-.011-.29-.01-.289-.01-.29-.01-.289-.01-.29-.008-.289-.01-.29-.008-.289-.01-.289-.008-.29-.008-.289-.008-.289-.008-.29-.008-.289-.008-.289-.007-.29-.007-.288-.007-.29-.007-.289-.006-.289-.007-.289-.006-.289-.006-.29-.006-.288-.006-.29-.005-.288-.006-.29-.005-.288-.005-.289-.004-.289-.005-.289-.004-.289-.005-.289-.003-.288-.004-.29-.004-.288-.003-.289-.004-.288-.003-.29-.002-.288-.003-.288-.003-.289-.002-.288-.002-.29-.002-.288-.001-.288-.002-.289-.001-.288-.002h-.288l-.289-.001-.288-.001h-2.018l-.288.002h-.288l-.288.002-.288.002-.289.001-.288.002-.288.002-.288.002-.287.003-.288.002-.288.003-.288.003-.288.003-.288.003-.287.004-.288.003-.288.004-.288.004-.287.004-.288.005-.287.004-.288.005-.287.005-.288.005-.287.005-.288.006-.287.006-.287.005-.288.006-.287.007-.287.006-.288.007-.287.006-.287.007-.287.008-.287.007-.287.007-.287.008-.287.008-.287.008-.287.008-.287.009-.287.008-.287.009-.287.009-.286.009-.287.01-.287.009-.287.01-.286.01-.287.01-.286.01-.287.01-.286.01-.287.011-.286.011-.287.011-.286.012-.287.011-.286.012-.286.012-.286.012-.287.012-.286.012-.286.012-.157.008-.129.005-.286.013-.286.013-.286.013-.286.013-.286.014-.286.013-.286.014-.285.014-.286.015-.286.014-.286.014-.285.015-.286.015-.285.015-.286.015-.286.016-.285.016-.286.015-.285.016-.285.016-.286.017-.285.016-.285.017-.285.017-.286.017-.285.017-.285.017-.285.018-.285.018-.285.018-.285.018-.285.018-.285.018-.284.019-.285.019-.285.019-.285.019-.284.019-.285.02-.285.02-.284.019-.285.02-.284.02-.284.02-.285.021-.284.02-.285.022-.284.02-.284.022-.284.021-.284.022-.285.022-.283.021-.285.023-.284.022-.284.022-.283.023-.284.023-.284.023-.284.023-.283.023-.284.023-.284.024-.283.024-.284.024-.283.024-.284.024-.283.025-.284.024-.283.025-.283.025-.284.026-.283.025-.283.025-.283.026-.283.026-.283.026-.283.026-.283.026-.283.027-.283.027-.283.027-.282.027-.283.027-.283.027-.282.028-.283.028-.282.027-.283.028-.282.029-.283.028-.282.029-.282.029-.283.028-.282.03-.282.029-.282.03-.282.029-.282.03-.282.03-.282.03-.282.03-.282.03-.281.03-.282.032-.282.03-.282.032-.281.03-.282.032-.281.032-.282.032-.281.032-.281.032-.282.032-.28.033-.282.032-.281.033-.281.033-.281.033-.281.033-.281.034-.281.033-.281.034-.281.034-.28.034-.281.034-.281.035-.28.034-.281.035-.28.035-.281.035-.28.035-.28.036-.281.035-.28.036-.28.036-.28.036-.28.036-.28.036-.28.037-.28.037-.28.037-.28.037-.28.037-.28.037-.28.038-.28.038-.279.038-.28.037-.279.039-.28.038-.279.039-.279.038-.28.039-.278.04-.28.038-.279.04-.278.039-.28.04-.278.04-.28.04-.278.04-.279.04-.279.04-.278.041-.279.04-.278.042-.279.04-.278.042-.279.042-.278.041-.278.042-.278.042-.279.042-.278.042-.278.043-.278.042-.278.043-.277.043-.278.043-.278.043-.278.043-.277.044-.278.043-.277.044-.278.044-.277.044-.278.045-.277.044-.277.045-.277.044-.277.045-.277.046-.277.045-.277.045-.277.046-.277.046-.277.045-.277.046-.276.047-.277.046-.276.046-.277.047-.276.047-.277.047-.276.047-.276.047-.276.048-.276.047-.276.048-.276.048-.276.048-.276.048-.276.049-.276.048-.275.049-.276.049-.276.049-.275.05-.276.048-.275.05-.275.05-.276.05-.275.05-.275.05-.275.05-.275.05-.275.05-.275.051-.275.051-.274.051-.275.051-.275.052-.274.051-.275.052-.274.052-.275.052-.274.052-.274.052-.274.052-.274.053-.274.053-.274.053-.274.053-.274.053-.274.053-.274.053-.273.054-.274.054-.274.054-.273.054-.273.054-.274.054-.273.055-.273.055-.274.055-.273.055-.272.055-.273.055-.273.055-.273.056-.273.056-.273.056-.272.056-.273.056-.272.056-.273.057-.272.057-.272.056-.273.057-.272.057-.272.058-.272.057-.272.058-.272.057-.272.058-.271.058-.272.058-.271.059-.272.058-.271.059-.272.058-.271.06-.271.058-.272.06-.27.059-.272.06-.27.059-.272.06-.27.06-.271.06-.27.06-.272.06-.27.06-.27.062-.271.06-.27.061-.27.062-.271.06-.27.062-.161.037-.109.025-.27.061-.27.062-.27.062-.27.062-.27.063h-.002l-.699-.105-.419-.543v-.004l.11-.665.571-.398h.002l.271-.062.27-.062.272-.062.271-.062.271-.062.11-.024.161-.037.272-.061.271-.061.272-.061.271-.061.272-.061.271-.06.272-.061.272-.06.272-.06.272-.06.272-.06.272-.06.272-.06.272-.059.272-.059.273-.059.272-.059.273-.059.272-.058.273-.059.273-.058.273-.058.272-.058.273-.058.273-.058.273-.057.273-.058.274-.057.273-.057.273-.057.274-.057.273-.056.273-.057.274-.056.274-.057.274-.056.273-.056.274-.055.274-.056.274-.055.274-.056.274-.055.275-.055.274-.055.274-.054.274-.055.275-.054.274-.054.275-.055.275-.054.274-.053.275-.054.275-.053.275-.054.275-.053.275-.053.275-.053.275-.052.275-.053.276-.052.275-.053.275-.052.276-.052.275-.051.276-.052.276-.052.276-.05.275-.052.276-.05.276-.052.276-.05.276-.051.276-.05.276-.05.277-.05.276-.05.276-.05.277-.05.276-.05.277-.049.276-.05.277-.048.277-.049.277-.048.277-.049.276-.049.277-.048.277-.048.277-.048.278-.047.277-.048.277-.047.278-.048.277-.047.277-.047.278-.046.278-.047.277-.047.278-.046.278-.046.277-.046.278-.046.278-.046.278-.045.278-.046.278-.045.279-.045.278-.045.278-.044.278-.045.279-.044.278-.045.279-.044.279-.044.278-.043.279-.044.278-.044.28-.043.278-.043.28-.043.278-.043.279-.042.28-.043.278-.042.28-.042.279-.042.28-.042.278-.042.28-.042.28-.04.279-.042.28-.041.28-.041.279-.04.28-.041.28-.04.28-.041.28-.04.28-.04.28-.04.28-.04.28-.039.28-.04.28-.038.28-.04.28-.038.281-.039.28-.038.281-.038.28-.038.281-.038.28-.038.282-.038.28-.037.281-.038.281-.037.281-.037.281-.037.281-.036.281-.037.281-.036.282-.036.28-.036.282-.036.282-.036.28-.035.282-.036.282-.035.281-.035.282-.035.282-.034.282-.035.281-.034.282-.034.282-.034.282-.034.282-.034.282-.033.282-.034.282-.033.282-.033.282-.033.283-.032.282-.033.282-.032.283-.033.282-.031.283-.032.282-.032.283-.032.283-.03.282-.032.283-.031.283-.03.283-.032.283-.03.283-.03.283-.03.283-.03.283-.03.283-.03.283-.03.283-.029.283-.029.284-.029.283-.029.284-.028.283-.03.284-.027.283-.029.284-.027.283-.028.284-.028.284-.027.284-.028.284-.027.283-.027.284-.026.284-.027.284-.027.284-.026.285-.026.284-.026.284-.026.284-.025.284-.025.285-.026.284-.025.284-.025.285-.024.284-.025.285-.024.284-.024.285-.025.285-.023.285-.024.284-.024.285-.023.285-.023.285-.023.285-.023.285-.023.285-.022.285-.023.285-.022.285-.022.285-.021.286-.022.285-.021.285-.022.285-.02.286-.022.285-.02.286-.021.285-.02.286-.02.285-.02.286-.02.286-.02.285-.02.286-.019.286-.02.286-.018.286-.019.286-.019.286-.018.286-.018.286-.018.286-.018.286-.018.286-.018.286-.017.286-.017.286-.017.287-.017.286-.017.287-.017.286-.016.286-.016.287-.016.286-.016.287-.016.287-.015.286-.015.287-.015.287-.015.286-.015.287-.015.287-.014.287-.014.287-.014.287-.014.287-.014.287-.013.287-.014.287-.013.287-.013.287-.013.287-.012.288-.013.13-.005.157-.007.287-.012.288-.012.287-.011.287-.012.288-.01.287-.012.288-.01.287-.011.288-.01.287-.011.288-.01.288-.01.288-.01.287-.01.288-.009.288-.01.288-.008.288-.01.287-.008.288-.009.288-.008.288-.008.288-.008.289-.008.288-.007.288-.008.288-.007.288-.007.288-.007.289-.007.288-.006.288-.006.289-.007.288-.005.289-.006.288-.006.288-.005.289-.006.288-.005.29-.004.288-.005.288-.005.289-.004.289-.004.288-.004.29-.004.288-.003.289-.004.289-.003.289-.003.288-.003.29-.002.288-.003.29-.002.288-.002.29-.002.288-.002.29-.001.289-.002.289-.001h.289l.29-.002h.578l.29-.001h.288z"/></g><g fill="#070000"><path d="M490.748 151.174c-4.308-7.002-19.324-36.378-19.501-41.252 1.4-1.87 2.81-.722 3.885-2.637.461-.82.307-2.197-.54-2.83-3.626-2.006-8.082-3.125-12.76-5.385-1.905-.185-1.397 1.811-.54 3.075.942 1.387 2.88 2.949 2.958 4.508.425 8.522 1.046 40.918-.677 47.99-1.915 1.313-3.02 1.318-3.622 2.636-.446.976-1.823 2.828.065 4.216 3.315 2.438 9.574 3.386 13.5 4.838 1.54-.565.743-4.334.27-5.259-.671-1.311-2.725-.216-2.885-2.235-.52-1.576-1.142-29.789-.5-33.361 3.582 5.017 17.24 32.002 20.582 42.36-1.915 1.313-4.172.93-4.979 1.669-.806.738-1.348 1.989.54 3.377 3.315 2.438 9.371 4.74 13.296 6.192 1.54-.565.743-2.015.27-2.94-.671-1.31-2.877-3.164-3.087-4.425-1.488-8.921-.302-41.137.548-49.433 1.4-1.87 3.216-.336 4.022-1.219.64-.702.848-2.842.001-3.474-3.626-2.007-8.081-4.285-12.76-6.545-1.904-.185-2.074 2.584-1.216 3.848.555.818 2.26 2.235 2.587 3.318 1.31 4.33 2.365 25.082.543 32.968zM449.921 101.927c-.858 8.378-.156 40.452.544 49.11.162 2.003 2.439 3.008 3.117 4.254.477.879.876 2.638-.68 3.352-3.962-1.07-9.874-2.203-13.22-4.319-1.906-1.204-1.49-3.179-.677-3.995.814-.817 2.134-.175 4.067-1.675 1.74-7.24.566-41.534.137-50.014-.079-1.551-2.307-2.538-3.257-3.834-.866-1.18-1.38-3.127.544-3.127 4.452 0 10.103 2.954 13.764 4.609.855.55.918 2.94.271 3.705-.813.962-3.197-.073-4.61 1.934zM387.936 135.957c-.761-.869 17.594-45.566 17.594-46.855 0-1.29-1.763-1.805-3.526-3.868-.956-1.118.138-2.834 1.628-3.221.705-.183 23.832 4.815 24.68 6.573 1.49 3.093-1.49 4.383-4.203 4.512-2.307.11 5.153 49.24 5.83 51.173.677 1.933 4.611 2.062 5.56 4.382.948 2.32 1.626 3.223.135 3.48-1.492.258-16.272-3.222-17.086-4.124-.814-.902.135-2.965 1.491-3.352 1.226-.348 2.984.13 3.256-2.448.27-2.578-2.578-26.811-4.07-27.713-1.49-.903-14.914 5.026-17.491 6.315-2.293 1.147-6.27 13.922-6.949 15.985-1.763 1.417-5.65.53-6.849-.839zm14.34-20.56c1.906-5.03 6.587-19.949 10.468-24.358.803-.912 3.07-1.152 3.633.64 1.09 3.47 1.503 12.992 1.899 18.175-3.119 1.031-15.448 6.166-16 5.543zM275.788 73.472c.417-.067 29.027-5.62 26.517 9.494-.751 4.524-7.967 11.633-12.307 14.114-2.693 1.942 1.171 20.394 4.34 25.361 2.61 4.093 7.582 9.557 13.422 8.378 2.541-.513 5.77-3.093 6.08-5.904.728-6.586-4.363-8.42-3.23-9.563 1.174-1.185 3.925 2.341 5.084 4.35 1.728 2.997 1.303 7.342-.203 9.86-3.445 5.761-11.693 6.727-16.101 4.867-10.25-4.324-14.171-11.374-17.12-33.416-2.23 1.238-3.871 1.598-8.754 3.66.228 10.39 2.131 20.735 3.086 24.71 1.933 1.5 2.65 1.503 3.56 2.223 1.355 1.074 1.227 2.983-.17 4.769-4.568 1.245-11.495 1.51-14.95 1.129-1.555-.715-2.172-2.86-1.695-3.739.678-1.246 4.073-2.155 4.235-4.157.7-8.658-.162-36.041-.78-44.439-.362-4.91-3.05-2.162-4.407-5.187-.404-.903-.531-4.28 1.053-4.64 3.864-.881 7.514-1.097 12.34-1.87zm-2.096 23.785c6.201-.622 14.87-4.678 19.391-10.94 1.777-2.46 1.359-5.444-1.15-6.895-3.548-2.05-13.895.173-18.582 1.627-.99 3.514.268 9.846.341 16.208z"/><path d="M323.687 78.402c.859 8.379.124 41.162-.576 49.82-.162 2.002-2.745 1.557-4.033 3.19-.624.792-.468 3.701 1.087 4.416 3.555.284 10.687.794 14.95.225 1.905-1.205 1.794-3.664.98-4.48-.813-.816-2.943-.87-3.356-2.739-1.13-5.112-2.634-46.301-1.797-50.335 3.333-1.357 11.423-.485 12.85.323 2.268 1.285.885 5.69 5.228 6.344 2.702.407 2.731-11.212 1.551-11.212-4.897-3.68-35.777-3.409-45.798-1.029-1.363 2.58.197 10.32 1.438 10.789 3.049 1.15 2.533-4.212 5.27-5.04 4.994-1.513 11.306-1.55 12.206-.272zM368.686 74.549c5.4.314 28.585 4.51 23.308 16.7-2.568 5.93-10.868 9.625-13.522 11.31-2.655 1.686.687 20.926 3.016 26.659 1.984 4.883 5.264 9.94 12.413 9.37 2.549-.204 4.738-1.517 5.795-4.864 1.46-4.624-2.446-8.33-1.028-8.574.97-.167 3.172 3.348 3.664 5.605.827 3.795.153 5.948-1.529 8.21-4.35 5.852-13.523 3.819-18.106 1.612-6.387-3.075-12.128-14.436-12.393-37-2.332.75-3.826.739-9.354 1.362-1.013 10.386-1.77 22.856-1.307 27.017 1.613 1.04 2.738 1.427 3.438 2.415.7.988 1.05 2.363-.53 3.838-4.621.253-11.235-.206-14.573-1.33-1.438-1.046-.567-2.926.005-3.697.812-1.094 3.227-.783 3.624-2.74 1.717-8.462 3.674-37.081 3.83-45.602.085-4.599-1.678-3.549-2.495-4.597-1.154-1.48-.209-5.608 2.624-5.916 3.864-.422 8.303-.058 13.12.222zm-6.956 23.918c6.004-.365 17.916-1.149 22.12-7.405 1.617-2.407 1.424-3.782-1.394-6.63-3.01-3.043-14.48-3.565-19.244-3.13-.581 1.09-1.813 10.918-1.482 17.165zM227.88 86.94c.388 2.408.112 13.204.82 24.026.675 10.32 2.347 20.63 2.266 25.117-.027 1.493-1.22.978-1.897 2.224-.478.879.549 3.024 2.104 3.739 4.675-.392 26.47-2.14 29.592-4.546 1.874-1.446 1.217-9.921.863-11.42-.335-1.423-2.994-1.738-4.09-.738-1.079.984.233 3.791-2.438 5.84-3.666 2.813-15.93 4.21-17.862 2.71-.765-3.183-1.65-10.363-1.604-18.533 2.032-2.364 8.785-5.227 13.516-4.288 2.412 2.157 3.119 5.083 6.85 4.055 1.643-.453 1.128-15.45-1.3-15.649-3.2-.26-3.997 2.205-5.333 4.729-4.574 1.623-13.997 2.954-14.395 1.747-1.725-7.67-1.258-16.565-1.09-19.882.078-1.551 15.474-4.6 18.032-3.931 2.59.677 2.112 4.513 3.21 5.363 1.995 1.543 3.758-.85 4.133-1.164 2.393-2.005 1.145-11.387.118-11.387-4.723 0-31.595 4.276-35.256 5.93-.855.55-1.02 2.523-.27 3.867.607 1.09 2.619.185 4.031 2.191zM192.938 117.78c3.133-2.421 16.723-25.622 18.607-29.258-1.617-1.426-2.1-.069-3.524-1.03-.842-.57-1.127-3.06-.272-3.61 3.661-1.655 9.517-2.835 12.748-2.835 1.923 0 1.997 3.723 1.119 4.895-1.188 1.585-.59.524-2.543 2.099-3.708 4.472-11.882 16.862-16.604 25.451 5.044 6.35 16.515 23.637 19.994 23.597 1.771-.02 5.483 1.737 4.882 5.282-3.096 1.547-6.475 1.848-11.493 2.771-1.086.2-2.347-.773-2.169-1.74.272-1.476 1.84-2.473 1.659-3.963-3.797-4.487-12.265-16.787-15.838-22.009-2.54 2.07-5.21 7.551-6.533 9.389.102 6.44.592 12.756 1.186 15.229 2.137 1.403 3.762 2.243 4.576 3.06.814.816 1.23 2.373-.676 3.578-3.347 2.115-8.039 2.185-12.001 3.254-1.556-.714-1.869-2.57-1.391-3.448.678-1.246 1.836-2.735 1.998-4.738.7-8.658.723-40.764-.135-49.142-1.413-2.006-2.305-.65-3.118-1.611-.647-.765-.844-2.538.068-2.997 3.918-1.973 8.33-2.352 12.78-3.513 1.924 0 1.954 2.206 1.088 3.386-.95 1.295-4.33 1.767-4.409 3.318-.213 4.198-.949 19.851 0 24.586zM170.089 137.834c1.894-1.17-3.042-30.761-3.596-36.165-1.412-2.006-3.32-1.423-4.134-2.385-.647-.764-.583-2.543.272-3.093 3.66-1.654 8.531-2.578 13.254-4.383 1.924 0 1.41 1.947.544 3.127-.95 1.295-2.906 2.67-2.985 4.22-.43 8.481 2.296 40.294 4.036 48.21 1.933 1.5 3.354 1.534 4.168 2.351.814.816 1.433 2.308-.473 3.513-3.347 2.115-8.343 2.379-12.305 3.448-1.556-.714-1.462-2.665-.578-4.51.612-1.277 4.165-2.086 3.218-3.579-1.762-2.777-4.932-6.439-7.123-9.371-3.955-5.292-15.925-21.125-18.235-23.892-.148 2.545.42 37.961 1.7 43.286 1.932 1.5 2.54.955 3.354 1.772.814.816 1.636 1.63-.27 2.835-3.346 2.116-9.461 3.83-13.424 4.9-1.555-.715-.75-2.087-.272-2.966.678-1.246 2.954-2.252 3.116-4.254.7-8.658.419-40.957-.44-49.336-1.413-2.006-3.715.476-5.151-.741-1.273-1.078-1.397-3.413-.542-3.963 3.661-1.654 11.074-4.318 15.797-6.123 1.923 0 1.715 2.913.849 4.093-.829 1.13-4.078 2.031-3.26 3.376 1.544 2.622 19.96 29.062 22.48 29.63zM119.34 121.07c.858 8.378.02 40.194-.68 48.852-.161 2.002-2.438 3.008-3.116 4.254-.478.879-1.283 3.41.272 4.125 3.76-.779 10.586-3.846 14.035-6.059 1.897-1.216 1.084-2.019.27-2.835-.814-.817-2.134-.175-4.068-1.675-1.739-7.24-.701-40.889-.272-49.37.079-1.55 2.035-2.924 2.985-4.22.866-1.18 1.481-3.707-.442-3.707-4.927 1.225-10.163 3.905-13.458 6.026-.855.55-.918 1.652-.272 2.417.814.962 3.332.185 4.745 2.191zM35.02 102.071c.488-1.902 3.455-3.112 5.794-4.02 5.4-2.098 11.607.159 15.91 3.673 3.439 2.81 5.477 7.101 5.414 10.529-.127 6.922-4.544 11.214-8.747 13.663-3.93 2.29-13.21 6.334-23.808 5.161-6.261-.693-13.504-3.104-20.26-9.026-7.075-6.2-10.76-13.274-8.426-28.973 1.945-13.08 17.82-26.34 29.575-30.904 15.596-6.056 47.08-8.46 66.251-2.444 18.534 5.816 37.26 6.76 57.36-.127 11.123-3.811 18.111-10.09 22.298-16.054 3.875-5.519 3.958-13.315 2.82-19.724-.982-5.534-7.676-11.85-12.009-14.415-7.395-4.38-19.728-4.333-24.798-2.759-8.884 2.759-16.054 8.495-16.063 17.163-.01 8.416 5.716 14.6 14.168 14.757 2.191.04 3.02-.62 4.207-.834-.265.925-2.67 2.094-5.073 2.269-5.479.398-16.42-4.493-16.455-17.063-.027-9.538 7.069-17.157 18.83-20.703 10.297-3.104 18.75-2.893 26.51.836 7.95 3.821 13.955 10.207 17.286 17.497 3.07 6.716 2.21 17.135-.744 23.75-3.598 8.055-7.068 15.19-23.797 24.363-9.316 5.108-36.37 11.15-62.987 5.155-17.808-4.01-47.051-4.256-59.396-.389C25.974 77.496 11.18 87.55 9.05 99.88c-1.25 7.242 1.028 13.794 4.744 18.045 3.68 4.209 9.786 8.088 17.31 9.021 5.754.714 13.776-1.087 19.017-3.951 4.392-2.4 7.999-6.349 8.629-9.063 1.355-5.836-1.312-9.795-4.857-12.144-4.177-2.767-8.946-2.831-11.548-2.512-2.665.327-6.233 1.861-7.325 2.796z"/><path d="M80.38 74.31c3.447-.301 16.269 1.724 22.577 2.963-.68 1.354-2.07 2.613-2.713 3.609-1.16 1.796-.95 2.867-1.017 5.51-.056 2.221.014 29.756.102 52.568.14 35.98-.029 67.495 0 69.403.056 3.675 1.251 8.459 2.034 9.925.595 1.115 1.769 2.057.882 2.9-3.661.065-16.679 0-21.154 0-.806-.566-.34-1.61 1.017-2.9.355-.337 1.921-6.186 2.034-9.925.45-14.945.53-49.754 0-53.154-.271-1.74-.056-5.239-3.73-5.865-3.093-.528-3.793 1.998-4.134 3.674-1.968-1.934-2.827-5.962 2.17-7.541-4.977-.93-4.164-6.029-1.357-7.67-.067 3.163 1.108 4.242 3.25 4.202 2.32-.044 3.533-2.362 3.8-2.85 1.642-2.993.37-50.902.273-53.378-.103-2.61-.373-3.877-1.525-6.412-.972-2.14-1.867-3.268-2.509-5.06z"/></g><path d="M48.616 132.152c4.214-1.413 8.49-4.147 11.723-6.945 2.898-2.508 4.489-6.26 4.756-10.487.318-5.02-1.767-8.518-.935-7.75 1.995 1.841 4.506 11.378-.592 18.352-2.37 3.24-7.588 6.726-10.897 7.796-6.81 2.2-13.608 2.499-16.2 1.293 3.322-.413 8.873-1.162 12.145-2.259zM173.507 67.77c4.325-2.746 9.937-7.741 13.818-13.614 3.275-4.956 4.816-14.23 5.035-16.258.66-6.131-.343-11.224-4.328-21.028 8.108 9.802 9.213 19.727 6.254 30.017-2.733 9.507-6.637 16.654-17.965 24.019-9.272 6.028-26.965 9.43-39.097 8.337 22.645-2.203 33.382-9.631 36.283-11.473zM108.886 141.597c-.276.97-.113 3.365-2.66 4.188 1.708.34 2.995 1.943 2.43 3.984-1.354-.85-2.383-.667-3.91-.529-2.45.222-3.374 1.136-3.383 3.764-.067 19.679-.29 39.359 0 59.035.02 1.387.817 3.547 2.438 4.06-1.018-2.009-.665-4.905-.665-6.96 0-18.667-.11-37.334 0-56 .009-1.493-.024-2.062 1.396-2.223 2.603-.295 4.363.02 6.016 2.127.4-1.2.513-3.07.263-4.655-.147-.934-1.019-2.66-1.596-2.756.6-.12 1.342-1.232 1.526-1.997.487-2.021.419-3.989-.524-5.867-.742 2.072-2.167 2.628-4.328 2.667-1.74.032-2.729-.651-2.753-2.705-.194-16.391-.08-32.784 0-49.176.008-1.595.29-3.185.62-4.75.131-.623.178-1.321.588-1.824-2.069.076-2.972 3.264-2.98 4.77-.099 17.248-.07 34.497 0 51.747.005 1.473.623 3.979 3.28 3.835 0 0 1.453.387 4.242-.735zM44.677 36.275c-.386.47-.703-.764-1.32-1.325-1.076-.252-3.512-.145-3.758.021-.362.244-.54.985-.592 1.554-.155 1.694-.463 7.514.115 9.155.667.462 1.456 1.938 1.203 1.964-1.57.163-3.638.16-5.212.054-.16-.008.171-1.255 1.178-1.901 1.04-1.48.326-7.778.17-9.254-.06-.568-.4-1.328-.762-1.572-.335-.226-3.78-.46-4.055-.02-.79 1.584-1.138 1.628-1.327 1.187-.222-.52-.153-1.958 0-2.506.082-.289 14.058-.213 14.68-.07.101.024.177 2.11-.32 2.713zm13.727 11.489c-.72-.771.995-1.252 1.245-2.028.296-.922 1.063-2.735.38-4.144-1.63-.016-7.5-.183-9.167.036-.3 1.297-.207 2.878.076 3.807.225.74 1.714 1.232 1.974 2.371-1.186.1-5.62.107-6.811 0 .207-1.105 1.642-1.305 1.78-2.106.297-1.71.335-8.386.039-10.096-.14-.8-1.879-1.034-1.63-1.998 1.071-.106 4.784-.193 5.823.073-.03.657-1.186 1.395-1.254 1.543-.269.58-.395 3.797-.073 4.716 1.515.383 7.5.091 9.205 0 .399-1.286-.029-4.307-.374-4.676-.358-.382-1.58-.836-1.483-1.656 1.07-.106 4.823-.05 5.898 0 .35.73-1.086 1.68-1.14 1.833-.686 1.952-.698 8.854-.415 10.357.142.758 1.676.69 2.05 1.974-.834.07-4.334.023-6.123-.006zm11.886-6.685c-.401.63-.417 3.736.046 4.82.812.236 6.238.427 7.219.163.51-.764.315-1.517 1.825-1.647.16.568.095 2.621 0 3.186-1.74.298-10.897.11-12.936.01.052-1.474 1.123-1.912 1.213-2.077.735-1.341.156-7.774-.056-9.507-.136-1.105-1.322-1.519-.819-2.337 1.378-.578 11.271-.014 11.894-.12.187-.032.212 2.564.051 3.154-.424.196-1.31-.124-1.883-1.538-.877-.25-5.672-.262-6.611.17-.302.832-.428 3.794.171 4.39 1.17.488 4.398.133 4.808-.044.095-.04.875-1.274 1.819-.813.094.565.103 2.889-.058 3.457-1.225-.076-1.215-.95-1.759-1.125-.57-.184-3.326-.555-4.924-.142z" fill="#000"/></g></svg>